<?xml version="1.0" encoding="utf-8"?><svg xmlns="http://www.w3.org/2000/svg" xmlns:xlink="http://www.w3.org/1999/xlink">
	<symbol viewBox="0 0 15 9" id="arrow-to-right">
		<path d="M10.58.867l3.563 3.563.408.445-.408.445-3.563 3.563-.853-.89 2.56-2.524H.375V4.28h11.912l-2.56-2.523.853-.89z" />
	</symbol>
	<symbol viewBox="0 0 25 18" id="burger">
		<path fill-rule="evenodd" clip-rule="evenodd" d="M25 0H0v2h25V0zM0 8h25v2H0V8zm0 8h25v2H0v-2z" />
	</symbol>
	<symbol viewBox="0 0 14 14" id="clock">
		<path d="M2.219 2.504C3.555 1.168 5.149.5 7 .5c1.852 0 3.434.668 4.746 2.004 1.336 1.312 2.004 2.894 2.004 4.746 0 1.852-.668 3.445-2.004 4.781C10.434 13.344 8.852 14 7 14c-1.852 0-3.445-.656-4.781-1.969C.906 10.695.25 9.101.25 7.25c0-1.852.656-3.434 1.969-4.746zm8.754.773C9.87 2.176 8.547 1.625 7 1.625c-1.547 0-2.871.55-3.973 1.652C1.926 4.38 1.375 5.703 1.375 7.25c0 1.547.55 2.871 1.652 3.973C4.13 12.324 5.453 12.875 7 12.875c1.547 0 2.871-.55 3.973-1.652 1.101-1.102 1.652-2.426 1.652-3.973 0-1.547-.55-2.871-1.652-3.973zM6.437 2.75h1.125v3.938h2.813v1.125H6.437V2.75z" />
	</symbol>
	<symbol viewBox="0 0 20 20" id="cross">
		<path d="M1.797.14L10 8.403 18.203.141l1.406 1.406-8.261 8.203 8.261 8.203-1.406 1.406L10 11.098l-8.203 8.261L.39 17.953 8.652 9.75.391 1.547 1.797.14z" />
	</symbol>
	<symbol viewBox="0 0 9 16" id="fb">
		<path d="M6.453 3.05h1.922V0H6.101C3.36.125 2.797 1.775 2.75 3.5v1.525H.875V8H2.75v8h2.813V8h2.32l.445-2.975H5.563V4.1c-.008-.132.01-.264.05-.388a.988.988 0 01.188-.337.935.935 0 01.295-.233.881.881 0 01.357-.092z" />
	</symbol>
	<symbol viewBox="0 0 16 16" id="insta">
		<path d="M2.858 0h10.909c.568 0 1.051.212 1.449.636.398.425.597.94.597 1.546v11.636c0 .606-.2 1.121-.597 1.546-.398.424-.88.636-1.449.636H2.858a1.912 1.912 0 01-1.449-.636c-.398-.425-.597-.94-.597-1.546V2.182c0-.606.2-1.121.597-1.546A1.914 1.914 0 012.858 0zm8.864 2.182v2.182h2.045V2.182h-2.045zM10.23 5.955a2.458 2.458 0 00-1.918-.864c-.767 0-1.42.288-1.96.864C5.841 6.5 5.585 7.182 5.585 8c0 .818.256 1.515.767 2.09.54.546 1.193.82 1.96.82.768 0 1.407-.274 1.918-.82.54-.575.81-1.272.81-2.09 0-.818-.27-1.5-.81-2.045zm-8.054.59v7.273c0 .485.227.728.682.728h10.909c.455 0 .682-.243.682-.728V6.545h-2.301c.17.485.255.97.255 1.455 0 1.212-.397 2.242-1.193 3.09-.795.85-1.761 1.274-2.898 1.274-1.136 0-2.102-.425-2.897-1.273C4.619 10.242 4.222 9.212 4.222 8c0-.485.085-.97.255-1.455h-2.3z" />
	</symbol>
	<symbol viewBox="0 0 9 15" id="left-arrow">
		<path d="M7.281.898l.89.891L2.05 7.875l6.123 6.086-.89.89L.75 8.322l-.371-.446.371-.445L7.281.898z" />
	</symbol>
	<symbol viewBox="0 0 44 65" id="mark">
		<path d="M30 63c0 1.105-3.582 2-8 2s-8-.895-8-2 3.582-2 8-2 8 .895 8 2z" />
		<path d="M44 22.334c0 12.062-19.462 41.16-22 41.16-2.538 0-22-29.098-22-41.16C0 10.272 9.85.494 22 .494s22 9.778 22 21.84z" />
		<path d="M31 22.494a9 9 0 11-18 0 9 9 0 0118 0z" />
	</symbol>
	<symbol viewBox="0 0 16 16" id="phone">
		<path d="M3.043 1.219c.258-.188.527-.282.809-.282a1.4 1.4 0 01.843.282l.035.035.036.035 2.25 2.32.035.036-.035.035c.257.21.386.492.386.843 0 .329-.117.61-.351.844L5.926 6.492c.398.914.926 1.688 1.582 2.32a8.185 8.185 0 002.285 1.547l1.09-1.09.035-.035c.234-.21.527-.316.879-.316.351 0 .644.105.879.316l.035.07 2.25 2.25c.234.235.351.528.351.88 0 .351-.117.644-.351.879l-1.723 1.757h-.035c-.586.516-1.242.657-1.969.422-2.53-1.008-4.664-2.367-6.398-4.078C2.96 9.516 1.602 7.383.758 5.016.5 4.266.664 3.633 1.25 3.117v-.035l1.758-1.793v-.035l.035-.035zm.95.914c-.048-.047-.095-.07-.141-.07-.024 0-.059.023-.106.07L2.023 3.855v.036c-.234.187-.304.433-.21.738.773 2.203 2.05 4.195 3.832 5.976 1.593 1.594 3.574 2.86 5.94 3.797a.814.814 0 00.88-.175l1.723-1.688c.046-.07.046-.129 0-.176l-2.32-2.285c-.048-.07-.095-.07-.141 0l-1.407 1.406-.28.246-.352-.175A9.519 9.519 0 016.84 9.727l-.106-.106a6.707 6.707 0 01-1.125-1.3c-.328-.516-.562-.938-.703-1.266l-.21-.457-.106-.352L4.836 6l1.406-1.406c.07-.047.094-.094.07-.14h-.035l-.035-.036-2.25-2.285z" />
	</symbol>
	<symbol viewBox="0 0 12 16" id="point">
		<path d="M2.414 2.414C3.398 1.43 4.594.937 6 .937c1.406 0 2.602.493 3.586 1.477.984.984 1.476 2.18 1.476 3.586 0 .656-.257 1.547-.773 2.672-.375.914-.89 1.922-1.547 3.023a30.65 30.65 0 01-1.09 1.793c-.375.61-.668 1.067-.879 1.371l-.316.457-.457.668-.457-.668a46.153 46.153 0 01-2.285-3.62c-.656-1.102-1.172-2.11-1.547-3.024C1.195 7.547.937 6.656.937 6c0-1.406.493-2.602 1.477-3.586zm6.363.809c-.75-.774-1.675-1.16-2.777-1.16s-2.04.386-2.813 1.16c-.75.75-1.124 1.675-1.124 2.777 0 .492.21 1.242.632 2.25.352.773.868 1.734 1.547 2.883A49.178 49.178 0 006 13.945a49.178 49.178 0 001.758-2.812c.68-1.149 1.195-2.11 1.547-2.883.422-1.008.633-1.758.633-2.25 0-1.102-.387-2.027-1.16-2.777zM5.191 5.227A1.11 1.11 0 016 4.875c.305 0 .563.117.773.352.235.21.352.468.352.773s-.117.574-.352.809c-.21.21-.468.316-.773.316s-.574-.105-.809-.316A1.173 1.173 0 014.875 6c0-.305.105-.563.316-.773z" />
	</symbol>
	<symbol viewBox="0 0 9 15" id="right-arrow">
		<path d="M1.719.898L8.25 7.43l.371.445-.371.445-6.531 6.532-.89-.891L6.95 7.875.828 1.789l.89-.89z" />
	</symbol>
	<symbol viewBox="0 0 19 11" id="vk">
		<path d="M9.174 10.997h1.114a.67.67 0 00.5-.24.955.955 0 00.147-.51s-.03-1.53.675-1.771c.675-.21 1.555 1.5 2.523 2.16.372.253.814.379 1.262.361h2.493c.176 0 1.262-.15.704-1.172-.058-.09-.352-.78-1.877-2.22-1.585-1.501-1.35-1.261.528-3.842 1.144-1.56 1.584-2.521 1.467-2.941-.088-.33-.998-.27-.998-.27h-2.818a.604.604 0 00-.351.06.737.737 0 00-.235.3c-.287.78-.64 1.532-1.056 2.25-1.262 2.191-1.76 2.313-1.966 2.161-.469-.33-.352-1.26-.352-1.95 0-2.131.323-3.002-.616-3.242a4.042 4.042 0 00-1.32-.12c-.998 0-1.848 0-2.347.24-.323.15-.558.51-.41.54.315.033.607.184.82.422.293.39.293 1.32.293 1.32s.176 2.492-.381 2.792c-.382.21-.91-.21-2.025-2.19a16.086 16.086 0 01-.997-2.132.98.98 0 00-.235-.33.795.795 0 00-.44-.18H.606S.197.463.05.703a.611.611 0 000 .48s2.113 5.042 4.49 7.563c2.17 2.431 4.635 2.251 4.635 2.251z" />
	</symbol>
</svg>