<svg width="171" height="55" fill="none" xmlns="http://www.w3.org/2000/svg"><path fill-rule="evenodd" clip-rule="evenodd" d="M154.03 11.337c-1.156.278-2.219-.474-3.225-.809-1.132-.37-2.276-.763-3.421-1.11-2.311-.693-4.773-1.109-7.038-2.01-2.011-.798-3.629-2.254-5.64-3.016-5.339-2.023-11.603-2.947-18.317-3.525-1.225-.104-2.589-.116-3.826-.601-1.017.277-2.369.138-3.316-.197-3.606.208-7.674-.23-11.673 0-2.138.127-4.357.197-6.541.3-1.04.047-2.207.035-3.225.197-1.017.162-1.953.717-2.82.705-.75-.011-1.698-.393-2.611-.508-.994-.116-2.069-.104-3.12-.104-1.965 0-4.311-.047-5.94.497-.498.173-.902.6-1.41.809-.787.323-1.734.577-2.613.901-3.143 1.167-7.13 1.537-10.667 2.219C51 6.541 43.487 8.355 36.89 11.118c-4.253 1.78-8.287 4.206-11.87 6.645-3.651 2.473-6.563 5.79-10.562 7.951-1.133.613-2.462 1.167-3.826 1.71-1.329.532-2.588 1.353-3.825 1.815-.393.15-.89.046-1.306.196-.393.15-.913.578-1.41.81-1.41.635-1.722 1.005-2.82 1.906-.578.474-1.098.82-1.202 1.306-.45 1.988 1.433 4.519 2.52 4.635.843.092 1.606-.59 2.415-.706 2.404-.358 3.71.336 5.027 1.11 2.092 1.225 3.988 2.323 6.241 3.12.428.174.081.636.509.902 3.397 2 6.888 3.906 10.262 5.94 1.087 1.86 3.756 2.392 6.241 3.016 12.458 3.144 28.418 2.867 42.865 2.416 2.542-.081 5.062.092 7.546 0 1.618-.058 3.479-.45 5.34-.601 1.953-.162 3.975-.035 5.732-.3 1.202-.185 2.346-.567 3.525-.706 4.16-.485 7.338-1.213 10.667-2.218 2.161-.648 4.102-1.514 6.136-2.416 2.034-.901 4.126-1.653 6.033-2.612 7.674-3.86 14.527-8.529 21.126-13.279-.092.278-.404.648.197.601 3.236-2.947 7.176-4.958 11.164-7.038 3.964-2.069 8.032-4.392 12.573-5.732.648-1.468 4.774-.797 4.531-2.82-.139-1.121-2.624-1.445-3.93-1.71-4.645-.936-8.979-1.7-11.973-3.12-.335-.163-.947 0-.785-.602z" fill="#424751"/><path fill-rule="evenodd" clip-rule="evenodd" d="M93.055 1.976c-.636.532-1.387.96-2.115 1.41.612-.555 1.04-1.306 2.115-1.41zm1.411 0c-1.145 1.006-2.416 1.884-3.618 2.82v-.705c1.214-.693 2.034-1.78 3.618-2.115zm18.514.509c-.578.566-1.387.89-1.907 1.514-.336-1.017.82-1.919 1.907-1.514zm1.202.104c-1.11.832-2.381 2.034-3.421 2.612.543-1.376 2.022-1.803 3.016-2.716.093.08.231.104.405.104zm.705.092c-1.341 1.271-2.751 2.473-4.126 3.721.069-.89 1.121-1.421 1.814-2.01.717-.601 1.468-1.353 2.312-1.71zm1.005 0c-1.63 1.583-3.525 3.444-5.236 4.634 1.618-1.675 3.271-3.316 5.236-4.634zm-10.066 4.23c.069-1.179 1.71-1.64 2.415-2.52.301-.103.173.22.197.405-.821.682-1.792 1.757-2.612 2.115zM71.12 4.796c-.728.59-1.537 1.606-2.311 1.814.693-.682 1.167-1.583 2.311-1.814zm37.121.509c.509.693-.254 1.814-.404 2.52-.451.045-.752-.047-1.11-.105.347-.555 1.04-.763 1.41-1.306-.809.046-1.179 1.087-1.803 1.006-.127-.578 1.514-1.387 1.907-2.115zm-37.328.092c-.081.682-1.017 1.398-1.71 1.814.438-.74 1.247-1.098 1.71-1.814zm69.537 3.525c-.693 1.722-1.676 3.155-2.311 4.935-.37-.07-.728-.14-1.202-.104.589-1.283 1.283-2.474 1.41-4.23.485-.047.635-.44 1.109-.509-.601-.508-1.861.601-2.011-.104-2.392 1.399-5.362 2.22-7.442 3.93-2.682-.37-5.432-.67-8.148-1.006 2.635-2.427 5.963-4.946 9.558-6.137.45-.15 1.837.474 2.519.705 2.173.752 4.38 1.665 6.518 2.52zM61.655 7.42c.174-.035.197.08.197.196-1.387 1.618-2.624 3.513-3.825 5.432-.37.589-.602 1.467-1.41 1.606-.07-.44.566-1.19 1.005-1.815 1.26-1.733 2.82-3.64 4.033-5.42zm-5.835.901c.092.96-.128 1.607-.405 2.219-.047-.659-1.017-2.473.404-2.219zm-1.504.196h.405c-.104.994.462 2.057-.104 2.612-.381-.59-.277-1.653-.3-2.612zm-.913.105h.497c-.23 1.109.44 2.67-.196 3.224-.15-1.017-.382-1.953-.3-3.224zm-.6.103c.416.751.092 2.254.404 3.12-.555-.462-.913-2.577-.404-3.12zm88.849.798c-.659 1.583-1.814 2.681-2.415 4.322h-.705c.531-1.745 1.675-2.89 2.207-4.634.462-.035.613.22.913.312zm-93.38.104c.173-.035.185.08.196.196-.566 1.168-.947 2.531-1.41 3.826-.23-1.04.578-2.774.902-3.93.162.023.3.023.312-.092z" fill="#B3B8C6"/><path fill-rule="evenodd" clip-rule="evenodd" d="M137.723 9.927c.011.786-.324 1.618-.601 2.312-.22.555-.428 1.606-1.41 1.41.728-1.156.832-2.924 1.814-3.826.116-.011.174.024.197.104zm4.83 0c-.312.752-.774 1.491-1.201 2.208-.359.6-.659 1.71-1.607 1.71.578-1.537 1.745-2.473 2.311-4.022.232-.023.382.023.497.104zm.405.208c.255.081.393.278.705.3-.554 1.214-1.306 2.254-1.907 3.422h-.901c.601-1.341 1.491-2.393 2.103-3.722zm-6.645.301a17.66 17.66 0 01-1.306 3.12c-.312.07-.3-.173-.601-.104 1.179-.462.786-2.496 1.907-3.016zm7.754.3c.255-.011.312.162.497.197a58.826 58.826 0 01-1.005 1.606c-.289.451-.543 1.248-1.202 1.306.52-1.075 1.202-2.01 1.71-3.109zm-9.152.197c.185.462-.671 1.606-.809 2.415a33.392 33.392 0 01-3.017-.405c1.133-.797 2.566-1.317 3.826-2.01zm10.054.207c.312.024.451.22.705.301-.439.867-1.052 1.56-1.41 2.52-.37.011-.635-.104-.901-.197.358-1.063 1.155-1.676 1.606-2.623zm2.623.093c.081-.23.439.081.601.104-.127.416-.346-.08-.601-.104zm1.711.404c.081.324-.161.313-.196.509-.289-.104-.821-.312-.601-.601.208-.22.416.15.797.092zm-3.225.001c.185-.012.208.127.405.104-.497.809-.832 1.78-1.711 2.219.382-.832.983-1.445 1.306-2.323zm-46.077 2.415c.832-.589 2.45-2.461 3.317-2.115-1.306.52-1.838 1.792-3.317 2.115zm4.727-2.311c-1.04.878-1.953 1.872-3.421 2.311 1.029-.878 1.826-2 3.421-2.311zm1.41 0c-1.005.797-1.861 1.768-3.224 2.219 1.028-.786 1.86-1.769 3.224-2.22zm-5.34.104c-1.352.658-1.548 2.484-3.72 2.311 1.074-.936 1.42-2.612 3.72-2.311zm7.351 0c-1.329.693-1.734 2.288-3.93 2.115 1.237-.786 1.849-2.185 3.93-2.115zm41.755 0c.231.115.508.162.705.3-.127.312-.347.532-.509.81-.208-.093-.392-.209-.6-.301.046-.359.254-.555.404-.81zm-40.045.092c-1.191.624-1.93 1.699-3.421 2.01.994-.808 1.664-1.952 3.421-2.01zm1.607.104c-1.133.613-1.664 1.826-3.421 1.814 1.086-.67 1.757-1.722 3.421-1.814zm36.126.208c-.381.624-.866 1.144-1.201 1.815-.324.057-.474-.07-.705-.104.566-.59.82-2.266 1.906-1.71zm-51.624.093c-2.138.208-2.323 2.38-4.83 2.207 1.294-.555 3.05-2.785 4.83-2.207zm16.607-.197c-.797.648-1.514 1.376-2.612 1.71.798-.635 1.433-1.444 2.612-1.71zm1.606.104c-.855.428-1.572 1.399-2.612 1.306.752-.508 1.283-1.71 2.612-1.306zm-21.831 0c-1.78.844-2.738 2.496-5.235 2.612 1.734-.879 2.716-2.508 5.236-2.612zm1.607 0c-1.607.74-2.543 2.15-4.623 2.415 1.502-.843 2.485-2.218 4.623-2.415zm21.739 0c-.844.578-1.561 1.768-2.913 1.514.948-.52 1.503-1.445 2.913-1.514zm-31.597.093c-.763.635-1.641 1.04-2.416 1.606-.75.543-1.363 1.433-2.415 1.607 1.537-1.144 2.635-2.716 4.83-3.213zm1.201 0c-1.352.994-2.704 1.988-3.929 3.12h-.809c1.549-1.075 2.728-2.52 4.738-3.12z" fill="#B3B8C6"/><path fill-rule="evenodd" clip-rule="evenodd" d="M86.514 12.343c-1.282.97-2.588 1.907-3.721 3.016h-.901c1.421-1.12 2.461-2.623 4.622-3.016zm1.907 0c-1.78.832-2.589 2.646-4.935 2.912 1.549-1.075 2.45-2.774 4.935-2.912zm1.815 0c-1.665.855-2.774 2.253-4.831 2.716 1.525-.983 2.484-2.543 4.83-2.716zm27.366.104c-.878.566-1.306 1.572-3.016 1.306.844-.543 1.549-1.71 3.016-1.306zm34.116 0c-.288.786-.843 1.306-1.202 2.01-.231-.034-.381-.161-.704-.103.647-.578.67-2.22 1.906-1.907zm-32.902 0c-.567.612-.948 1.398-2.219 1.306.658-.52 1.051-1.295 2.219-1.306zm29.978.196a32.77 32.77 0 00-.901 1.514c-.393.023-.74 0-1.006-.104.474-.635.775-2.022 1.907-1.41zm-68.821-.093c-1.179 1.075-2.508 1.988-3.42 3.317-.463.035-.937.07-1.307.197-.162-.266.29-.566.509-.81.947-1.05 2-3.004 4.218-2.703zm39.94 0c.243.382-.312.821-.404 1.203h-1.006c.474-.393 1.029-.717 1.41-1.202zm-24.443.093c.301.347-.6 1.19-.808 1.71-.555-.011-1.086-.011-1.514.104.682-.693 1.653-1.109 2.323-1.814zm33.504.705c-.901.717-2.669.404-4.126.404h-4.426c-.323-.15.416-.9.705-1.109 2.577.277 5.143.566 7.847.705zm23.345-.601c.185-.011.208.127.405.104-.543.463-.463 1.549-1.306 1.71-.093-.612.739-1.12.901-1.814zm-77.581.104c.173.196-.728 1.005-1.41 1.005.242-.566.762-.855 1.41-1.005zm75.27.197c-.174.462-.555.716-.705 1.202h-.705c.277-.555.554-1.826 1.41-1.202zm-76.773-.001c-.185.313-.44.567-1.005.497.138-.346.473-.52 1.005-.497zm79.986.001c.185-.012.219.127.404.104-.104.6-.601.809-.601 1.514h-.601c.116-.694.624-.994.798-1.618zm-78.183.208c.278.115-.358.96-.901.901.104-.497.728-.485.901-.901zm-3.825.3c.046.312-.278.266-.301.509-.347.08-.381-.15-.705-.104.046-.474.601-.601 1.006-.405zm58.466.197c.023-.208.382-.093.405-.3.936.138 1.941.207 3.016.196-.936.242-2.311.034-3.421.104zm25.159-.197c-.231.37-.531.682-.601 1.202h-.601c.254-.508.382-1.548 1.202-1.202zm-86.642.196c-.046.324-.15.59-.6.509.045.162.311.08.196.404-.231.243-.497-.011-.81 0-.022-.358.186-.485.197-.808.44.057.682-.07 1.017-.105zm3.929.208c-.115.405-.392.51-.809.405.058-.416.451-.578.81-.404zm83.916 0c-.07.359-.359.51-.301 1.006-.347.046-.566-.034-.809-.104.174-.497.405-1.26 1.11-.901zm-85.626.393c0 .37-.347.382-.508.601a2.676 2.676 0 00-.81-.3c.243-.358.89-.694 1.318-.3zm-4.125 1.11c-.116.011-.081.185-.104.3-1.295-.185-2.89-.936-4.323-1.306 1.653-.462 3.398.231 4.427 1.006zm6.84-1.109c-.219.312-.565.635-.9.3.092-.277.577-.543.9-.3zm83.615 0c.474-.046.532.347 1.006.3-.046.197-.22.255-.197.497-.462.058-.624-.173-1.109-.104.231-.312.069-.404.3-.693zm-82.909.208c-.208.208-.45.763-.81.508.197-.3.428-.693.81-.508zm-2.519.092c-.035.335-.3.44-.497.601-.243.046-.22-.185-.508-.104.23-.346.473-.693 1.005-.497zm-1.711.509c-.138.612-1.051-.162-1.514-.197.255-.612 1.064.081 1.514.197zm2.612-.104c-.081.323-.278.531-.601.6-.07-.092-.185-.15-.3-.196.184-.289.462-.659.9-.404zm-15.486.104c-1.213 1.976-2.427 3.952-3.721 5.836-.555.104-1.064-.231-.81-.601.37-.324.37.37.902.208.127-.566-.393-.474-.404-.902 1.317-1.329 2.138-3.155 3.42-4.53.208-.011.405-.011.613-.011zm9.153 2.311c-2.867.705-5.166-1.549-7.952-1.907-.115-.127-.034-.162 0-.3 2.624.358 5.028 1.814 7.952 2.207zm7.038-2.114c-.092.392-.439.67-.809.496.07-.335.52-.682.81-.497zm-6.229 0c.231.034.416.115.601.196-.08.185-.173.37-.196.6-.231-.034-.416-.115-.601-.196-.058-.312.138-.381.196-.6zm3.814.103c-.139.44-.428.174-.81.104.07-.358.59-.162.81-.104zm-15.891 0c-.185.462-.555.716-.705 1.202-.474-.162-.717-.566-1.11-.81.44-.288 1.225-.23 1.815-.392zm16.908.404c-.035.324-.763.255-.705-.104.196-.196.474.035.705.104zm-1.815.405c-.011.29-.427.174-.404.509.531.162.89-.96 1.606-.405a.47.47 0 00-.104.3c.104.22.347-.242.705-.103-1.237.901-2.993.242-4.126-.3.324-1.099 1.514.057 2.323 0zm59.565-.508c-2.231 1.456-4.265 3.12-6.345 4.726a.916.916 0 00-.405-.404c.636-.82 1.584-1.653 2.612-2.415 1.133-.832 2.3-1.884 4.138-1.907zm1.606-.001c-2.276 1.653-4.83 3.017-6.645 5.132 2.785-1.537 4.762-3.895 7.847-5.132-2.403 1.884-4.946 3.64-7.142 5.733-.612-.127-.936-.543-1.514-.705 1.942-1.618 4.415-3.664 6.738-5.028.081-.034.497.035.716 0zm31.504 2.012c-3.698 1.386-6.911 3.871-10.366 5.732-1.792.97-3.779 1.572-5.64 2.415-1.803.82-3.363 1.85-5.027 2.924-1.075-.127-1.792-.624-2.82-.809.739-1.075 2.184-1.444 3.12-2.311-1.468 0-2.392 1.791-3.825 1.907-.948.08-2.358-.798-3.421-1.202-3.19-1.248-6.46-3.41-9.153-4.727 2.438-2.092 5.177-3.883 7.651-5.94 11.129-.636 19.242 1.745 29.481 2.01zm-34.312 2.82c-.509.38-1.214.774-1.306 1.41 2.092-1.665 4.519-2.994 6.345-4.935.104 0 .081-.128-.104-.104-1.607 1.167-3.421 2.473-4.935 3.628zm20.317-2.208c-.59.289-1.225.52-1.514 1.11.716-.174 1.005-.752 1.514-1.11zm-15.29.3c-.011-.127-.035-.242-.196-.196-1.919 1.133-3.895 2.22-5.132 4.022 1.896-1.156 3.433-2.67 5.328-3.825zm12.378 2.612c.959.035 1.779-.74 2.611-1.201.867-.497 1.873-.81 2.52-1.514-2.069.554-3.49 1.745-5.131 2.715zm-7.651 2.612c.693-1.248.612-3.282 1.005-4.83h-.3c-.474 1.317-1.029 3.05-.705 4.83zm-3.317.208c1.086-.866.451-3.444 1.005-4.83h-.3c-.566 1.329-.439 3.501-.705 4.83zm4.923-.6c.185-1.226.775-3.11.405-4.23-.451.993-1.029 3.108-.405 4.23zm-2.808.496c.659-1.178.439-3.247.901-4.622-1.063.74-1.236 3.131-.901 4.622zm4.727-1.41c-.035.29-.567.902 0 .902.404-1.214 1.352-2.924 1.109-4.126-.612.844-.971 1.918-1.109 3.224zm-1.214 1.214c.59-1.19.601-2.947 1.11-4.23-.127 0-.139-.127-.301-.104-.497 1.086-1.317 2.912-.809 4.334zm5.64-1.11c1.745-.936 3.664-1.698 5.131-2.924-1.999.682-3.675 1.7-5.131 2.924zm1.41.705c1.502-.647 2.75-1.548 4.126-2.311-1.699.44-3.017 1.283-4.126 2.311zM63.77 17.879c-.948.508-2.161-.185-3.225-.509-1.098-.335-2.207-.786-3.317-.901.035-.266.301-.3.301-.601 2.069.681 4.01 1.49 6.24 2.01zm56.247-2.012c.266-.058-1.086 1.48-1.41 1.514-.716.058-1.051-1.11-1.814-1.202.763-.427 2.334-.034 3.224-.312zm2.115 0c-.705.81-1.664 1.364-2.219 2.312-.416-.058-.589-.347-.901-.497.797-.855 1.306-1.988 3.12-1.815zm1.307.001c-1.029.924-2.011 1.883-3.121 2.716.532-1.017 1.618-2.335 3.121-2.716zM52.803 18.18c-.82-.521-1.549-1.133-2.115-1.908.208-.196.693-.115.901-.3.266.832 1.873 1.41 1.214 2.207zm19.415-2.116c.081.44-.647.358-.6 0 .323-.104.23-.012.6 0zm41.964.208c1.317-.486 2.022.531 2.82.901-.786-.057-1.769-.786-2.82-.901zm-61.876.093c.508-.197 1.12.347 1.202.901-.463.139-.74-.705-1.202-.901zm58.558.103c-.404.278-1.202.497-1.606.197-1.318.566-4.785 1.652-6.738 1.71-.693.023-1.248-.139-1.814.3-1.618-.138-3.687.66-5.64.105-.659.069-1.618.797-2.01.196-.925.578-2.15.879-3.225 1.306-1.56-.786-2.936-1.757-4.623-2.415 7.154-1.722 16.896-1.919 25.656-1.399zm-62.084.001c.105.289-1.063 1.005-1.606 1.306-.057-.278-.416-.255-.404-.601.393-.509 1.271-.532 2.01-.705zm1.504.208c.785.59 1.329 1.421 2.115 2.01-.058.15-.15.255-.197.405-.485-.092-1.26-.705-.809-1.11-.08-.219-.485.336-.705 0-.046-.311.277-.265.3-.508-.346-.08-.38.15-.704.104-.058-.277-.416-.254-.405-.6.139-.105.312-.174.405-.301zm-3.918.092c-.07.254-.694.659-.705.104.23-.035.381-.162.705-.104zm16.294 1.618c-1.894.231-4.055-.878-5.731-1.514 1.756.254 3.756 1.133 5.732 1.514zm-19.923-1.514a1.575 1.575 0 01-.901.902c-.185-.416.254-.994.901-.902zm2.218 0c-.416.347-.74.81-1.202 1.11-.046-.093-.092-.185-.196-.197.265-.497.52-1.017 1.398-.913zm32.799.197c-1.768.381-3.594.693-5.432 1.005.451-.682 1.607-.6 2.52-.705.982-.115 1.999-.265 2.912-.3zm-32.198.103c-.184.601-.913 1.145-1.305 1.202.23-.6.705-.97 1.305-1.202zm3.93.105c.404-.035.277.462.6.508-.034.231-.311.22-.404.405-.612-.174-.659-.59-.196-.913zm-10.968.104c.532.289 1.156.97 1.202 1.41-.694.312-1.005-.578-1.41-.902-.07-.323.277-.208.208-.508zm7.744.092c.427.012.6.266.705.601-.266.173-.601-.277-.705-.6zm2.218.104c-.231.231-.335.613-.81.601.186-.289.44-.497.81-.6zm-2.716.3c.44.035.67.266.705.705-.37.451-1.179-.346-.705-.705zm25.761 0c.127.729-1.225.694-2.011.902-.901.254-1.791.728-2.415.901-1.514.44-3.12.624-4.623 1.006-10.09 2.588-20.132 6.24-31.192 7.95 1.41-.762 3.097-.97 4.727-1.305 3.2-.659 6.483-1.468 9.661-2.311 1.583-.416 3.109-1.145 4.53-1.41.3-.058.52-.185.81.104.485-.67 1.42-.786 2.114-1.11 2.173-1.005 4.773-1.537 7.35-2.311 1.676-.509 3.26-1.121 5.028-1.41 1.93-.324 3.975-.647 6.02-1.006zm-28.383.105c.277-.07.207.196.404.196-.058.312-.22.52-.601.509-.266-.278.162-.428.197-.705zm6.043.6a.914.914 0 00-.404.405c-.312-.023-.393-.278-.601-.405.208-.555.901-.809 1.005 0zm-8.459-.508c.381.058.485.393.6.705-.092.046-.184.092-.196.196-.462-.15-.901-.566-.404-.901zm9.557.105c.081.022.104.103.197.103v.197c-.3-.023-.347.37-.601.104.035-.231.324-.22.404-.405zm5.744 0c1.306.23 2.427.658 3.721.9-1.11-.022-2.716-.427-3.721-.9zm-18.121.103c1.028.323-.15 1.19-.601 1.11.104-.475.508-.637.6-1.11zm7.246.104c.358.115.59.346.705.705a.514.514 0 00-.3.3c-.37-.07-.486-.381-.81-.508.07-.232.347-.266.405-.497zm40.958 2.011c-4.935 1.468-10.101 2.716-15.995 3.224-.3.104-.174-.22-.197-.404-.196.011-.612.658-1.41.404.081-.416.266-.74.3-1.202-.404.231-.358.913-.6 1.306-1.722.058-3.329.22-4.426.902-.971-.578-2.173-.913-2.913-1.71 4.415-1.099 9.662-2.751 14.793-3.618 1.768-.3 3.837-.948 5.328-.81 1.803.174 3.351 1.48 5.12 1.908zm17.809-1.918c-1.317 1.537-3.502 3.074-5.027 4.726-1.017.127-1.387.89-2.311 1.11a76.391 76.391 0 016.737-5.732c.243.011.486.011.601-.104zm-67.62.208c-.07.439-.266.74-.601.9-.139-.288.254-.773.601-.9zm7.755 0c-.047.288-.208.462-.497.508.034-.3.196-.462.497-.509zm6.634 0c.3.277.67.462.809.9-.52.278-.67-.38-1.11-.496.035-.208.278-.208.3-.404zm52.225 0c-2.612 1.352-4.842 3.605-6.737 5.327-.578-.346.554-.878.901-1.202 1.017-.947 2.855-3.42 4.23-3.929.543-.197 1.005.07 1.41-.197h.196zm-55.843.196c-.127.173-.288.508-.496.3-.012-.3.288-.508.497-.3zm11.465.508c-.844.59-2.207.024-3.12-.196.566-.913 2.091.266 3.12.196zm-18.607-.508c.324.08.532.277.601.6-.092.047-.185.093-.196.197-.451-.139-.705-.404-.405-.797zm7.742.104c.22-.277.602.127.602.405-.347.011-.324-.347-.601-.405zm2.012-.104c.012.381-.196.543-.508.6-.22-.265.115-.623.508-.6z" fill="#B3B8C6"/><path fill-rule="evenodd" clip-rule="evenodd" d="M38.923 19.288a1.574 1.574 0 01-.901.902c-.913-.497.439-1.618.9-.902zm2.612-.3c.312.127.531.335.6.705-.404.312-1.063-.416-.6-.705zm53.427 4.322c-.474-.046.231-.37.3-.497 1.618-1.202 2.832-2.797 4.727-3.721.174-.035.185.08.197.196-1.295.936-2.624 2.207-3.93 3.317-.323.3-.74 1.098-1.294.705zm-50.307-4.022c-.22.104-.37.52-.601.3-.023-.335.37-.52.6-.3zm2.612.001c.3.069.682.37.508.6-.242.197-.658-.08-.705-.404.093-.035.174-.08.197-.196zm49.706 0c-1.317.993-2.577 2.057-3.93 3.016.822-1.11 2.197-2.496 3.93-3.016zm1.814 0c-1.12.89-2.415 1.93-3.628 2.912-.278.231-.763.948-1.202.508-.231-.381.416-.554.705-.809.936-.797 2.114-1.883 3.12-2.611h1.005zm-69.422 2.207c-.312-.07-.37.104-.6.104-.186-.774-.787-1.919.196-2.22.358.486.277 1.41.404 2.116zm17.105-2.011c-.116.196-.347.555-.601.3-.023-.323.404-.473.6-.3zm3.918.913c-.393-.035-.428-.439-.81-.497.15-1.155 1.815.22.81.497zm45.175-1.005c-1.26.624-2.184 2.091-3.525 2.311.312-.902 1.699-1.583 2.52-2.311h1.005zm-50.503.497c-.197.242-.509.242-.706 0 .105-.37.67-.579.706 0zm-5.837-.197c.232.07.266.335.509.404-.127.405-.462.613-.705.902-1.052-.3-.174-.844.196-1.306zm15.694 0c.613-.012.994.22 1.514.3-.335.127-1.305.023-1.514-.3zm-19.623.092c.115-.011.173.023.196.104-.531 1.341-1.456 2.3-2.115 3.525-.543-.555.336-1.248.705-1.814.44-.636.856-1.318 1.214-1.815zm6.136.613c-.092.046-.184.093-.196.208-.324-.104-.774-.44-.6-.705.357-.277.727.15.797.497zm1.306-.104c-.127.127-.37.127-.508 0-.035-.416.624-.578.508 0zm4.439.196c-.336.3-.902-.265-.705-.496.312-.255.74.08.705.497zm-19.428-.393c.278.416.44 1.41.405 1.815h-.509c-.011-.59-.23-.971-.196-1.607.173-.011.266-.08.3-.208zm9.963.601c-.278.058-.255.416-.601.405a.913.913 0 00-.405-.405c.116-.705.901-.705 1.006 0zm7.95-.508c.047.312-.265.266-.3.508-.127-.034-.162-.173-.3-.196.115-.197.335-.555.6-.312zm2.82.104c-.115.346-.346.277-.6.104.092-.335.404-.347.6-.104zm.601 0c.29-.22.625.381.902.497-.277.22-.601-.393-.901-.497zm5.432-.104c.416-.081.52.15.901.104-.231.173-.59.22-1.005.196a.47.47 0 00.104-.3zm-10.159.404c-.208.22-.323-.011-.508-.104.011-.289.6-.265.508.104zm-1.306-.196c.359.08.116.358 0 .509-.358-.093-.115-.359 0-.51zm8.149 0c-.116.185-.116.485-.509.404.023-.288.173-.439.508-.404zm-11.177.092c.925.463.509.879 0 1.514a1.03 1.03 0 01-.705-.705c.209-.3.52-.497.705-.809zm1.71.104c.278.162.51.358.197.601.139.312.451-.185.601.104.07.278-.196.208-.196.405-.405-.093-.566-.44-.81-.705-.057-.278.209-.208.209-.405zm4.127 0c.381-.011.543.197.6.497-.3.44-.67.185-.808-.3.104-.035.185-.081.208-.197zm1.618 0c.197 0 .127.278.405.197-.012.254-.15.393-.405.404-.231-.208-.231-.393 0-.6zm1.202 0c.393.139.658.416.809.81-.335.173-1.26-.486-.81-.81zm-4.022.208c.15.093.323.15.3.405-.23.034-.381-.012-.508-.104.046-.139.185-.162.208-.3zm-8.448.093c.358.115.59.346.705.704-.312.093-.312.486-.705.509a.913.913 0 00-.405-.405c.023-.38.37-.427.405-.808zm7.546.104c.046.208-.07.266-.104.404-.254-.011-.393-.15-.404-.404.127-.127.37-.127.508 0zm43.466-.104c-.243 1.398-1.04 3.016-1.71 4.726-.74 1.884-1.353 4.172-3.225 4.727 1.976-2.716 3.051-6.345 4.623-9.453h.312zm-49.313.104c.358-.023.335.335.6.404 0 .3-.265.347-.3.601-.266-.104-.335-.404-.601-.508.058-.208.22-.324.3-.497zm10.17.196c.358.116.589.347.705.705-.59.093-1.087-.404-.705-.705zm-3.016.105c.392 0 .762.37.6.6-.242.162-.612-.208-.6-.6zm2.114.404c-.208.404-.635.277-.705-.197.185-.289.717-.254.705.197zm-3.224-.3c.277-.07.197.196.404.196-.034.127-.173.162-.196.3-.15-.092-.324-.15-.3-.404.08.023.08-.035.092-.092zm-3.016.092c1.063.404.82 1.005.208 1.71-.405-.173-.52-.624-.902-.809.208-.312.52-.532.694-.901zm43.87 0c-1.167 2.438-2.115 5.27-3.225 7.847-.323.762-.589 1.884-1.513 2.115 1.363-3.005 2.68-6.045 3.72-9.361-1.143 1.502-1.721 3.49-2.519 5.327-.785 1.826-1.513 3.745-2.715 5.132 1.086-3.132 2.704-6.622 3.72-10.159-1.975 3.155-3.062 7.743-4.83 10.771-.948-.381.3-1.641.601-2.311 1.167-2.6 2.034-5.871 3.016-8.552 1.41-.116 2.474-.567 3.745-.81zm3.524 0c.29.115.682.127.705.508-.716.254-.716 1.225-1.305 1.606-.266 1.896-1.272 3.895-2.115 5.536-.52.046-.81.335-1.306.405.15-.278.23-.613.6-.405 1.792-1.895 2.416-4.946 3.421-7.65zm-45.592.104c.255.011.393.15.405.404-.197.046-.185.289-.509.197-.208-.209-.011-.44.104-.601zm-5.026.809c.046.312-.266.265-.3.508-.37 0-.452-.289-.706-.405.15-.647.774-.716 1.006-.104zm1.513.496c-.381-.22-.797-.45-.809-.6-.058-.81 1.757.173.809.6zm5.224-1.005c.428.208.775.497 1.006.902-.636.058-1.144-.486-1.006-.902zm3.328.104c-.07.243-.59.312-.705.197.127-.278.416-.324.705-.197zm-12.273 0c.208.174.474.266.508.601-.23.243-.323.15-.705.104.44.798-.6 1.168-.901 1.815-.693-.786.89-1.641 1.098-2.52zm10.863.509c-.312-.023-.6-.07-.6-.405.276-.289.831.174.6.405z" fill="#B3B8C6"/><path fill-rule="evenodd" clip-rule="evenodd" d="M44.25 23.113c-.555.232-1.294-.37-1.306-.6-.023-.752 1.202-.081 1.306.6zm45.177-.808c-.879 1.907-1.538 4.9-3.017 6.54 1.087-2.102 1.375-4.992 3.017-6.54zm-8.853.104c-1.144 3.178-2.577 6.945-4.126 10.066-1.098-.324-.208-1.48.104-2.115 1.11-2.335 2.311-5.224 3.12-7.743.336-.035.682-.058.902-.208zM42.84 23.414c-.635.231-1.41.335-2.01.601.184-.74 1.525-2.277 2.01-.6zm-18.514-.809c.174-.034.185.081.197.197-.786.96-1.064 2.427-2.011 3.224.578-1.167.762-2.727 1.814-3.42zm13.684.104c.254.185.566.3.705.6 0 .313-.208.394-.3.602-.313-.162-.44-.509-.81-.601-.011-.347.347-.324.405-.601zm41.05.001c.173-.035.185.08.196.207-1.456 2.762-2.542 5.906-4.021 8.656-1.029-.311-.174-1.34.104-1.906.924-1.942 1.883-4.6 2.715-6.646.324-.127.763-.127 1.006-.312zm10.667-.001c.173.139.335.266.705.208-.509.867-.867 1.93-1.306 2.912-.416.936-.682 2.185-1.607 2.612.763-1.884 1.526-3.779 2.208-5.732zm-53.427.105c.393.011.393.404.705.496-.197.786-1.19-.069-.705-.496zm54.537 0h.3c0 .265-.058.589.197.6-1.04 1.41-1.341 3.548-2.716 4.623.797-1.687 1.479-3.49 2.219-5.223zm-51.117.092c.474.092.648.485 1.006.705-.243 1.005-1.549-.139-1.006-.705zm81.407 0c-.277.855-.682 1.606-1.006 2.415-.369.07-.381-.22-.704-.197.959-.346.358-2.265 1.71-2.218zm-59.264 1.71c-1.029-.22-1.595-.89-2.612-1.11.878-.416 1.976.613 2.612 1.11zm30.58-1.098c-.97 1.306-1.248 3.317-2.716 4.126.624-1.48 1.398-2.831 2.011-4.322.37-.07.393.208.705.196zm-16.492-.104c-.982 2.208-1.618 4.75-2.716 6.842.647-2.207 1.306-4.392 1.815-6.738.404.081.508-.162.901-.104zm-53.127.104c.185-.023.208.093.104.104-.381.925-.543 2.069-1.41 2.52.254-1.064.59-2.034 1.306-2.624zm13.579.393c-.23.601-.693.983-1.11 1.41-.334-.035-.438-.3-.6-.508.428-.555.982-1.78 1.71-.902zm38.438-.393c-.901 1.918-1.421 4.207-2.115 6.345-1.005-.405-.161-1.572.105-2.416.311-.994.67-2.034.808-2.924-1.051 1.052-1.225 3.537-2.01 4.53-.243-1.582.89-3.64 1.201-5.327.752.012 1.295-.196 2.011-.208zm-37.732.092c.508.07.728.417.901.81-.243.034-.185.346-.497.3-.07-.52-.901-.6-.404-1.11zm1.906.105c.324.08.532.277.6.6-.427 0-.67.209-.9-.103-.047-.312.277-.255.3-.497zm54.341.405c-.832.982-1.144 2.472-2.312 3.12.243-1.029 1.133-2.289 1.607-3.421.381-.046.474.196.705.3zm-56.756.103c.266.104.335.405.601.509-.289.323-.855.346-1.41.404.22-.381.601-.555.809-.913zm58.57.902c-.866.577-1.86 1.017-2.82 1.514.035-.74.856-1.56 1.203-2.312.67.127 1.028.566 1.618.798zm-73.664-.601c-.115.393-.185.82-.809.705.093-.416.451-.566.81-.705zm12.181.092c.128.035.162.174.3.197-.138.462-.334.866-1.005.809.22-.347.532-.601.705-1.006zm20.526.104c-2.543 1.734-5.513 3.548-8.356 5.236-.763.45-1.838 1.629-2.82.809 3.86-1.803 6.992-4.346 10.968-6.033.069-.012.138-.012.208-.012zm60.073.104c.162-.023.173.093.3.104-.462.925-1.421 1.688-2.115 2.612-.277.37-.462 1.225-1.109 1.006 1.075-1.145 2.138-2.3 2.924-3.722zm-53.636.902c-.786 1.098-2.161 1.595-3.225 2.415.324-.959 1.618-1.803 2.22-2.82.461.012.658.29 1.005.405z" fill="#B3B8C6"/><path fill-rule="evenodd" clip-rule="evenodd" d="M117.498 37.398c-.716.462-.728 1.653-.901 2.716-.162.96-.081 2.439-1.11 2.52 0-1.78.971-3.641.509-5.236-.405 1.641-.798 3.294-.809 5.328-4.218 1.179-9.119 2.693-13.892 3.825-1.594.381-3.293 1.225-4.622 1.202-1.318-.011-2.624-.96-3.722-1.514a71.583 71.583 0 01-3.42-1.814c-.058-.428-.313-.89-.601-1.202-1.56-1.7-3.595-3.282-5.432-4.935-1.85-1.641-3.79-3.213-5.628-4.727.647-.947 1.594-1.028 2.415-1.71.254-.266.139.196.404.196 1.122-1.225 3.098-2.126 4.935-2.311 3.329-1.41 6.877-2.392 9.858-4.322 7.824 4.287 15.209 9.199 24.143 12.076a38.213 38.213 0 00-1.006 5.028c-.404-.07-.404.266-.809.196.093-1.525.682-3.062.601-4.426-.924.913-.45 3.236-1.514 4.022-.369-1.34.613-3.594.601-4.912zm-21.022-5.027c.555.023.44-.763.197-1.006h-.509c-.208.405.046.786.312 1.006zm-1.514 2.311c.463-.07.786-.289.902-.705-.463-.762-1.133.081-.902.705zm3.722.405c.843.15 1.074-.659.809-1.306-.705-.393-1.318.786-.81 1.306zm4.634 2.912c.948-.763 1.317-2.103 1.814-3.317-1.051.67-1.629 1.803-1.814 3.317zm1.306.509c.474-1.295 1.167-2.393 1.606-3.722-.023-.08-.081-.115-.196-.104-.428 1.19-1.734 2.543-1.41 3.826zm.508.104c-1.202.74-2.519 1.375-3.42 2.415 1.502-.601 2.854-1.907 4.229-2.311-.323.947-1.398 1.282-2.115 1.814a17.978 17.978 0 00-2.114 1.814c1.941-.508 3.131-2.3 4.726-2.82-.335.925-1.375 1.272-2.115 1.815-.751.543-1.618 1.029-2.115 1.814 1.688-.496 2.763-2.126 4.23-2.519v.705c-1.259.855-2.704 1.537-3.617 2.612 1.433-.07 2.346-1.537 3.721-2.011.151.3-.358.613.104.6.023-.843.601-1.143 1.214-1.409.069.462.081.994.196 1.41-1.583.566-3.039 1.248-4.322 2.115 1.526.277 2.924-1.294 4.322-1.815.185.012.07.336.301.3.173-.38.254-.75.601-.704-.705-.035-.405-1.063-.601-1.606.312.069.196-.278.497-.197.497.185.173 1.179.705 1.306-.081-1.641-.151-4.137-.497-5.836-.347 1.12-.208 2.958-.104 4.23-.312-.07-.301.173-.601.104.092-1.237-.162-2.52-.197-4.126-.635.277-.115 1.687-.508 2.219-.393-.104-.59.22-.809 0-.093-1.098.843-1.71.809-2.416-.254.486-.509.96-1.11 1.11-.046.59-.219 1.051-.809 1.11.301-1.341 1.433-2.382 1.514-3.63-.843 1.145-1.652 2.358-2.115 3.907zm-16.503-2.52c.913-.07 1.537-.936 2.207-.901-.6-.67-2.091.104-2.207.901zm.601.902c.774-.15 1.641-1.04 2.415-1.514-1.352-.035-2.034.589-2.415 1.514zm21.635 5.13c.323-1.49.381-4.38-.104-5.731-.104 1.652-.289 4.241.104 5.732zm-21.438-3.917c.924-.185 2.091-.994 2.912-1.606-1.387.115-2.45.554-2.912 1.606zm22.94 2.612c-.081-1.202.092-2.647-.508-3.317-.105 1.098-.105 2.647.508 3.317zm-11.765 1.514c.994-.844.948-2.75 1.306-4.23-1.04.277-.982 3.571-1.306 4.23zm-10.066-2.82c.878-.023 1.86-.74 2.612-1.202-1.029-.15-2.265.324-2.612 1.202zm4.727 1.306c.485-.694.635-1.71.901-2.612-.878.231-1.04 1.687-.901 2.612zm3.629 1.514c1.051-.59.578-2.704 1.005-3.93h-.3c-.486 1.064-.567 2.52-.705 3.93zm-1.214.6c.81-.9.624-2.796.81-4.321-.128 0-.14-.128-.301-.104-.428 1.097-.832 3.247-.509 4.426zm-1.306-.808c.197-.902 1.052-2.75.509-3.213-.601.601-.728 2.415-.509 3.213zm-6.136.104c1.178-.012 2.346-.855 3.316-1.41-1.387.185-2.785.37-3.317 1.41zM18.293 26.234c.255 0 .127.07.104.197-.832 1.075-1.098 2.727-2.415 3.317.82-1.11 1.213-2.67 2.311-3.514zm.405.601c.128.035.162.173.3.196-.438.832-.831 1.722-1.513 2.312.358-.878.89-1.584 1.213-2.508zm-1.814.104c.254 0 .127.07.104.196-1.017.96-1.19 2.762-2.716 3.225.867-1.144 1.225-2.797 2.612-3.421zm4.426.093c-.405.531-.45 1.421-1.306 1.514.485-.451.427-1.445 1.306-1.514zm19.52 2.623c1.618-.901 3.305-1.722 5.027-2.52.254 0 .127.082.104.197-.844.416-1.757.832-2.612 1.306-.797.45-1.549 1.398-2.52 1.017zM20.097 27.24c-.509.589-.624 1.594-1.503 1.814.578-.532.451-1.768 1.503-1.815zm43.973.3c-1.837 1.849-3.478 3.894-5.026 6.044-.451.012-.694.243-1.11.3.382-.323.45-.947 1.11-1.005-.116-.15-.116-.254 0-.404 1.479-1.746 2.935-3.502 4.426-5.236.266.035.3.3.6.3zm-48.896.197c-1.006 1.075-1.422 2.739-2.913 3.317 1.017-1.052 1.26-2.878 2.913-3.317zm44.574.6c.254 0 .127.081.104.197-.96.96-1.768 2.057-2.612 3.12-.347-.08-.393.15-.705.104.867-1.329 1.93-2.485 3.213-3.42zm-46.69.208c.255 0 .127.081.104.197-1.063.913-1.34 2.623-2.912 3.016.82-1.179 1.433-2.577 2.808-3.213zm53.428.509c-1.791 2.057-3.664 4.045-5.132 6.437 1.341-1.213 2.82-3.294 4.23-4.935.393-.45.902-1.456 1.607-1.11-.162.694-.752 1.237-1.202 1.815-1.34 1.676-2.959 3.502-4.126 5.432 1.976-1.606 3.513-4.184 5.235-6.24.127-.15.405-.81.705-.498.104.613-.508 1.156-.901 1.71-1.167 1.653-2.531 3.595-3.617 5.34-1.306-.173-2.97.023-4.126-.3 2.057-2.809 4.322-5.41 6.54-8.056.336.047.532.255.787.405zm-37.121-.312c-.093.346-.636.242-1.006.3.197-.231.694-.162 1.006-.3zm111.085.612c-2.357 1.977-5.408 4.15-8.147 6.033-1.029.705-1.988 1.133-3.017 1.71-.82.463-1.306 1.618-2.519 1.006-.393.092-.069-.532-.301-.601-.681.312-1.097.462-1.906.104 4.368-2.739 8.147-6.067 12.573-8.749 1.064.197 2.023.497 3.317.497zm-102.637.093c1.618-.139 2.693 1.133 3.826 1.814-1.248-.624-2.45-1.317-3.826-1.814zm-.809.405c-2.103 2.97-3.975 6.16-6.136 9.06-.14-.531.497-1.225.901-1.814.428-.624.925-1.295 1.41-1.71.763-2.093 2.612-3.63 3.12-5.64-1.964 1.63-2.357 4.819-4.726 6.032-.047-.45.416-1.26 1.109-1.306.15-.381-.45-.023-.3-.404.947-1.306 1.687-2.808 2.519-4.23.74-.07 1.468-.335 2.103.012zm-2.82.208c-.462.439-.497 1.733-1.306 1.514.382-.567.416-1.48 1.306-1.514zm5.132 1.005c-1.595 2.415-3.41 4.68-5.131 7.05-.555.762-.983 1.699-1.815 2.207-.254-.844.578-1.56 1.006-2.207 1.363-2.046 2.981-4.311 4.322-6.438-.832.047-1.283 1.075-1.71 1.711-1.341 2-2.716 4.426-4.23 6.333-.081-.22-.347-.254-.497-.404 1.837-3.236 4.218-5.917 5.94-9.257.948.092 1.398.681 2.115 1.005zm80.401 1.71c-.508-.358-.681-1.063-1.109-1.514.115-.52.566-.705.809-1.11.404.567.127 1.827.3 2.624zm-86.63-2.519c-.266.335-.37.843-1.006.809.104-.497.254-.96 1.005-.81zm-2.22.704c-.162.717-1.11.625-1.71.902.185-.693 1.11-.624 1.71-.901zm1.411.301c.254.22-.266.532-.601.509.023-.347.416-.324.6-.509zm9.557.105c.3-.232.67.323 1.005.404-.3.22-.67-.335-1.005-.404zm-16.596.104c.231.577-1.641.762-2.311 1.109a4.67 4.67 0 00-.705-.405c.797-.439 2.115-.37 3.016-.705zm45.673.496c-1.571 1.85-3.143 3.698-4.726 5.536-.324-.012-.624-.058-.81-.197-.161-.38.683-.866 1.11-1.306 1.248-1.317 2.496-3.074 3.722-4.426.277.081.427.3.704.393zm-42.46-.196c-.277.728-1.317.693-2.01 1.006.346-.66 1.27-.74 2.01-1.006zm4.728 0c-.29.381-.29 1.051-1.006 1.005.162-.508.335-1.017 1.005-1.005zm-1.307.393c-.162.439-.37.844-.809 1.005-.139-.346.243-1.04.81-1.005zm24.755 0c.289.242-.647.936-.809 1.41-.508.034-.751.323-1.202.404.578-.693.948-1.595 2.011-1.814zm11.268 5.535c-.393.023-.74 0-1.005-.104 1.375-1.814 2.935-3.444 4.23-5.327 1.34.323.335.947-.301 1.71-.948 1.121-2.126 2.912-2.924 3.721zM25.84 32.567c.359.312-1.548 1.503-1.814.601a7.6 7.6 0 001.814-.6zm4.924 0c-.278.324-.278.937-.902.902.255-.335.312-.89.902-.902zm-3.421.405c.208.508-1.514 1.26-2.312 1.11.463-.683 1.63-.648 2.312-1.11zm2.219.104c-.59 1.098-2.404 1.479-3.618 1.606 1.052-.693 2.346-1.133 3.618-1.606zm43.361.404c-1.225 1.584-2.103 3.537-4.126 4.323-.184-.359.266-.81.497-1.11.856-1.086 2.046-2.357 2.82-3.629.44-.011.52.3.81.416zm-40.542-.311c-.416.496-.474 1.34-1.202 1.513.312-.577.312-1.479 1.202-1.514zm25.149.104c.358.577-.914 1.224-1.815 1.213.323-.694 1.11-.925 1.814-1.213zm-42.056.207c-1.48.902-2.89 1.873-4.126 3.017-.809-.197-1.41-.601-2.52-.497-.138-.832 1.607-1.294 2.82-1.606 1.295-.347 2.67-.74 3.826-.913zm5.026 0c.428.29-.207 1.18-.508 1.41-.3-.554.566-.785.509-1.41zm10.576.093c-.162.682-.451 1.225-1.006 1.514-.011-.44.29-1.445 1.006-1.514zm42.055.104c.127.034.162.173.3.196-.38 1.33-1.282 2.138-2.31 2.82.346-.913 1.42-2 2.01-3.016zm-43.269.196c.22.312-.393 1.48-1.005 1.607-.035-.497.462-1.341 1.005-1.607zm28.58.208c.37.486-.878 1.052-1.514 1.202-.104-.612.878-.993 1.514-1.202zm-36.23.093c-.127.462.323.531.705.508-.37 1.272-1.029 2.265-1.907 3.017.22-.96.924-2.289 1.202-3.525zm51.417 0c.312 0 .393.208.6.3-.196.347-.728.347-.9.705-.243-.277.323-.612.3-1.005zm-44.876.208c-.185 1.098-1.33 1.941-2.115.809.577-.405 1.34-.613 2.115-.81zm-25.761.196c-.22.52-1.27.197-1.606.6-.139-.068-.185-.219-.197-.403.59.3 1.121-.255 1.803-.197zm28.28.405c-.254.485-.347 1.133-1.005 1.202.346-.382.346-1.121 1.005-1.202zm-12.274.207c.128.024.104.197 0 .197-.3.682-1.109 1.064-1.71 1.607-.508.474-.982 1.56-1.814 1.11 1.132-1.018 2.415-1.873 3.524-2.913zm11.269.093c-.347.486-.335 1.34-1.202 1.306.393-.428.381-1.283 1.202-1.306zm-1.11.405c-.15.381-.404.67-.508 1.11-.277-.197-.532-.417-.81-.602.498.104.648-.532 1.318-.508zm-4.831.196c.162-.023.174.093.3.104-.681 1.757-1.768 3.132-2.519 4.831-.358.023-.485-.185-.809-.196 1.11-1.491 2.173-3.005 3.028-4.739z" fill="#B3B8C6"/><path fill-rule="evenodd" clip-rule="evenodd" d="M31.977 35.884c.254 0 .127.07.104.196a39.796 39.796 0 00-1.514 2.312c-.3 0-.346-.266-.6-.3.496-.902.947-1.861 2.01-2.208zm-1.814.705c.312.115-.3.947-.601 1.11-.266-.474.346-.821.6-1.11zm89.751 1.11c.358-.023.485.184.809.196-.231.659-.335 1.583-.509 2.415-.15.763-.15 1.838-1.005 1.907.22-1.514.532-2.947.705-4.518zm-109.063.508c.104-.162.717.012.705.3-.266.232-.474-.207-.705-.3zm110.38-.104c.312-.07.3.173.601.104-.462 1.144-.127 3.086-1.306 3.525.162-1.283.427-2.462.705-3.63zm1.201.301a.47.47 0 00.301.104c-.462.74-.3 2.115-.901 2.716.184-.948.323-1.953.6-2.82zm-14.792.207c.231.081.035.567.104.81-.254.08-.566.103-.705.3-.416-.59.335-.878.601-1.11zm15.394 0h.3c.139.66-.346 1.526-.496 2.22-.243-.66.288-1.4.196-2.22zm1.815.301c.242 0 .3.174.601.104-.081.116-.139.266-.104.509-.393-.023-.37.358-.809.3.092-.335.15-.682.312-.913zm-52.019.901c-1.664 1.283-3.097 2.809-4.426 4.427-.22-.393.428-.81.705-1.11.97-1.051 2.127-2.38 3.224-3.317h.497zm34.914.105v.705c-.312.115-.531.335-.901.404.058-.243.15-.462.104-.809.277-.08.404-.324.797-.3zm-33.908.3c-1.329.867-2.334 2.184-3.42 3.421-.29.324-.694.96-1.214.809-.093-.335.335-.797.6-1.11.972-1.086 2.3-2.357 3.422-3.316.323-.058.404.138.612.196zm-43.87 5.94c-.901.081-.6-1.12-.6-1.918 0-1.34 0-2.716-.105-3.93.116-.393.613.428.81.601-.07 1.722.126 3.699-.105 5.247zm.601-4.83c.23.069.266.335.497.404.092 1.098-.127 2.404-.104 3.421.011.416.3 1.017 0 1.202-.44-.335-.37-1.167-.405-1.814-.046-.937.035-2.011 0-2.913.012-.104.012-.208.012-.3zm1.11 1.005c1.178.52.265 3.04.508 4.126-.555.07-.474-.624-.508-1.11-.058-.809.046-1.918 0-2.715v-.301zm85.625 0c.046.324-.185.358-.104.705-.22.08-.393.208-.705.196.138-.127.104-.439.104-.705.219-.08.346-.254.705-.196zm-1.214 1.005c-3.27 1.595-7.581 2.774-11.268 4.323-1.098.462-2.589 1.456-3.617 1.514-1.121.058-2.15-.786-3.225-.902 2.982-.82 6.01-1.56 8.957-2.415 2.901-.844 5.64-2.011 8.356-2.716.173-.093.162-.37.404-.405.116.012.174-.023.197-.104.381-.08.127.474.196.705zm-83.209.092c.254.186.566.301.705.602-.15.693-.15 1.826 0 2.519-1.272 0-.474-2.069-.705-3.12zm26.869.914c.393.208.751.45.902.901-.532 1.584-.451 3.78-1.907 4.427.497-1.607.693-3.525 1.005-5.328zm-25.563.196c.693.243-.208 2.08.809 2.011.392-.115.127-.878.196-1.306.404.174.116 1.03.197 1.515-.44-.024-.775-.162-1.306-.105.196-.543.069-1.41.104-2.114zm26.869.913c.232.208.544.335.602.705-.636 1.075-.313 3.109-1.514 3.617-.024-.728.242-1.167.6-1.514-.011-.115-.184-.08-.3-.104.289-.82.381-1.825.612-2.704zm1.006 1.006c.15.058.254.15.404.196-.104.636-.254 1.225-.705 1.514-.15-.427.29-1.12.3-1.71zm-16.7 4.125c.023-.208.139-.23.508-.104-1.999.382-4.16-.069-6.333-.6-2.172-.532-4.484-.347-6.437-.81-.578-.138-1.236-.566-1.814-.809-.613-.242-1.537-.323-1.41-1.201 2.554.323 5.039.681 7.65.809.578.023 1.295-.128 1.907 0 .532.104 1.364.74 2.208 1.109 1.34.566 2.82.797 3.72 1.606zm17.51-3.42c.311-.046.265.266.508.3-.104.405-.428.578-.601.902-.3-.324.185-.74.092-1.202zm.9.797c.208-.046.266.07.405.105-.046.392-.44.427-.497.808-.266-.196.116-.612.093-.913zm-20.12.509c2.242.104 4.68.89 7.246 1.005-.035.474-.347.659-.405 1.11-3.04.046-4.912-1.064-6.842-2.115zm18.213.196c.243.185.023.751-.3.705.046.162.312.08.196.404-.115.081-.266.128-.508.105-.035-.648.474-.74.612-1.214zm2.716 0c.138.104.37.093.404.3.07.405-.381.29-.705.301-.011-.3.208-.381.3-.601zm29.979.705c-.786.486-1.11 1.433-2.011 1.815.751-2.358 4.288-3.167 6.645-1.41-1.548.832-3.687 1.075-5.94 1.202.335-.636.924-1.017 1.306-1.607zm-36.22-.197c.15.023.035.3.197.3-.035.14-.254.082-.405.105-.07-.278.208-.208.208-.405zm34.914.093c.15.474-1.34 1.364-1.71 2.011h-.81c.752-.763 1.121-1.895 2.52-2.01zm-42.056.313c.416-.082.52.15.902.103-.07.44-.462.544-.509 1.006h-.705c-.07-.555.347-.613.312-1.11zm11.672-.001c.139.508-.474.45-.508.104.115-.093.277-.139.508-.104zm1.502.093c-.52.45-.565 1.375-1.513 1.41.45-.532.474-1.48 1.514-1.41zm26.975-.001c-.636.67-1.006 1.618-2.115 1.815.624-.682.97-1.641 2.115-1.815zm-38.242.105c-.277.346-.428 1.282-1.11.901.174-.497.267-1.075 1.11-.901zm16.907.104c-.3.277-.392.74-1.005.705-.115-.22-.104-.566-.3-.705h-.601c.15-.29 1.26.127 1.907 0zm-15.901 0c.035.439-.289.52-.3.9h-.81c.278-.392.243-1.109 1.11-.9zm34.913 0h.901c-.693.543-1.144 1.34-2.01 1.71-.105-.636 1.155-1.133 1.109-1.71zm-34.208.092c-.254.266-.173 1.098-.705.81.243-.255.15-.856.705-.81zm1.213.104c-.3.3-.254.947-1.005.809.092-.555.324-1.121 1.005-.81zm32.694-.104c-.832.45-1.329 1.225-2.219 1.607-.335-.255.729-.798.81-1.306-.96-.081-1.203 1.421-2.52 1.306-.023-.416.497-.313.404-.81-.728.209-.866 1.018-2.01.81.242-.463.808-.601.901-1.202 1.583-.104 3.04-.324 4.634-.405zm-31.584.104c-.012.358-.29.45-.3.809h-.706c.243-.347.278-.924 1.006-.809zm14.885 0c-.416.393-.694.924-1.41 1.005.023-.404.531-1.132 1.41-1.005zm-13.487.104c-.116.52-.45.832-1.202.705.185-.45.416-.867 1.202-.705zm1.618 0c-.127.312-.347.532-.508.809-.44.07-.567-.173-1.006-.104.208-.532.636-.855 1.514-.705zm1.202 0c-.023.382-.312.486-.404.81h-.705c.3-.348.3-.983 1.11-.81zm.808 0c.093.081.232.104.405.104-.185.416-.312.89-1.005.81.103-.405.358-.648.6-.914zm11.373 0c-.416.428-.682.994-1.607.902.416-.416.601-1.064 1.607-.902zm1.201.196c-.358.312-.462.879-1.213.81.243-.474.6-1.006 1.213-.81zm1.306.104c-.347.463-.716.89-1.41 1.006.451-.37.578-1.04 1.41-1.006zm7.547 0c-.647.486-.982 1.307-2.311 1.11.462-.682 1.063-1.213 2.311-1.11zm-5.327.104c-.613.601-1.029 1.387-2.416 1.202.59-.612.994-1.41 2.416-1.202zm1.513.093c-.508.358-.705 1.04-1.606 1.005.44-.416.797-1.236 1.606-1.005zm1.504 0c-.463.324-.902 1.04-1.41 1.006.01-.393.542-1.133 1.41-1.006zm-12.98.208c-.046.231-.496.046-.704.104.08-.22.531-.277.705-.104zM95.17 2.08c-.531 1.745-1.41 3.144-2.311 4.53 1.606-.797 2.138-2.68 2.716-4.53 3.27.058 6.379.266 9.661.3-3.166 2.601-6.09 5.456-8.448 8.854-2.9.22-5.559.046-8.055.3.127-.347.682-.254.809-.601-1.433.878-4.172.45-6.24.705-.359.162-.059-.335-.301-.3-1.029.485-2.705.323-4.022.496a90.493 90.493 0 015.732-6.945c.59-.636 1.456-1.838 2.115-2.115 1.237-.52 2.577-.104 3.93-.705-.012.659-.393.948-.602 1.41.232 1.12-.161 4.472 2.011 3.12-.08-.289-.254.127-.508 0 .474-.67 1.329-.948 1.814-1.606-.843-.035-1.571 1.444-2.519 1.306.936-1.248 2.057-2.3 3.42-3.12-1.42-.266-2.334 2.218-3.524 2.519.312-.948 1.283-1.468 2.01-2.011.729-.555 1.469-1.179 2.312-1.607zm13.279.208c-1.294 1.248-3.143 1.965-3.929 3.721.381.405.67-.658.901-.404.058.832-.751.797-.809 1.514.197.555.555-.405.809-.104.093.289.093.312 0 .6 2.3 1.838 4.253-.912 3.421-3.72-1.433.208-2.311 1.513-3.224 1.906-.093-.89.913-1.398 1.514-1.907.67-.577 1.433-1.051 2.011-1.606h1.71c-.127 1.006-1.202 1.086-1.41 2.011.497.508.913-.925 1.109-.405-.08.694-.82.717-.901 1.41.22.336.462-.127.705-.104.116.717-.647.555-.601 1.214.046.347.555-.15.497.104.035.774-.832.647-.901 1.306.496.347.681-.358 1.109-.405.139.3-.046.359 0 .81.705.022.936-.694 1.306-1.11.705-.786 1.653-1.549 2.519-2.312.832-.74 1.665-1.745 2.82-2.01-.659.913-1.814 1.872-2.82 2.82-.994.924-2.103 1.814-2.82 2.923.717.023 1.249-.74 1.711-1.213 1.468-1.468 3.062-3.282 4.935-4.426-.243.554-.832.959-1.306 1.41-1.364 1.282-2.982 2.739-4.126 4.322.347.07.497-.139.705-.3 2.057-1.596 3.305-4.034 5.64-5.328-1.63 1.895-3.664 3.374-5.132 5.431 1.11-.589 1.942-1.733 2.913-2.716.947-.947 1.814-2.276 3.224-2.611-1.225 1.964-3.733 3.501-5.131 5.64.982-.717 1.884-1.78 2.924-2.716 1.017-.925 1.803-2.185 3.016-2.82-1.028 1.895-3.467 3.236-4.53 5.431 1.317-1.421 2.75-2.831 4.126-4.322.393-.428.843-1.19 1.606-.901-1.364 1.953-3.351 3.293-4.727 5.235 1.202-.485 2.242-1.283 3.421-2.311.798-.694 2.069-2.45 3.016-2.612 1.225-.22 3.248.878 4.727 1.005-3.189 1.965-6.009 4.322-8.552 6.946-3.675-.22-7.281-.497-11.071-.601-.243-.139.184-.3-.104-.405-2.381.544-6.01-.011-8.853.3 1.884-2.438 3.929-4.633 6.137-6.84.693-.74 1.306-1.7 2.415-1.85zM67.4 13.255c.404-3.247 3.409-3.894 5.431-5.535-1.722.554-3.063 1.502-4.23 2.612-.358.034-.242.277-.6.104a2.84 2.84 0 01-.902 1.109c-.382-.058-.694-.185-.81-.508-.207.38.52.681 1.11.6-.127.613-.416 1.064-.508 1.71-2.774.278-5.675.428-8.252.902 1.468-2.542 3.167-4.877 4.935-7.142 1.653-.393 3.248-.855 4.83-1.306-.103.37-.311.624-.404 1.006.185.37.278-.174.497-.104.081.381-.127.485-.104.809.474-.012.867.52 1.607.196 0 .37-.29.45-.405.705 1.364-.624 1.826-2.126 2.115-3.825 1.502-.162 3.42-1.445 4.946-1.7 2.843-.473 5.652.429 8.356 0-2.392 2.416-4.738 4.439-6.946 7.143-2.045.139-2.484 1.872-4.322 2.219 1.202-1.144 2.658-2.046 4.126-2.924-1.121-.3-1.965.578-2.82 1.202-1.063.786-1.791 1.78-3.224 2.01 1.722-1.663 3.779-2.992 5.732-4.425-1.584.023-2.635 1.282-3.722 2.114-1.167.89-2.265 1.803-3.42 2.612 1.756-1.768 4.056-3.848 6.645-5.13.462-1.145.347-2.867.497-4.323-.913.693-.416 2.797-.81 4.022-2.98 1.306-4.946 3.64-7.35 5.535.186-.184.336-.508-.196-.404 1.745-1.745 3.814-3.155 5.836-4.634-2.97.924-4.657 3.12-6.645 5.027.936-.081-.289.358-.994.323zm8.043-6.044c.612-.508.196-2.542.3-3.224-.705.497-.335 2.288-.3 3.224zm2.716.902c.67-.96.335-2.797.508-4.022-1.167.693-.242 2.589-.508 4.022zM74.738 6.61c.532-.404.289-1.595.497-2.311-.127 0-.139-.127-.3-.104-.532.508-.186 1.572-.197 2.415zm-1.502 1.815c-.012-.127-.035-.243-.197-.197-1.734.913-3.294 2.011-4.426 3.525 1.733-.913 2.889-2.415 4.623-3.328z" fill="#B3B8C6"/><path fill-rule="evenodd" clip-rule="evenodd" d="M122.837 3.49a43.08 43.08 0 01-3.825 3.722c.866-.844 2.45-2.716 3.825-3.722zm7.443 1.71a75.86 75.86 0 01-2.415 1.006c.219-.081 1.456-1.318 2.415-1.006zm-27.771.705c-.081.486-.82 1.19-1.306 1.607.185-.786.959-.983 1.306-1.607zm-1.71 1.815c-.729.982-1.71 2.577-2.913 3.42.89-1.224 1.93-2.288 2.913-3.42zm-23.542 2.912c-.23.44-.647 1.572-1.814 1.41.497-.578 1.248-.901 1.814-1.41zm24.755 1.214c-.82.624-1.699 1.178-2.415 1.907.393-.648 1.433-1.503 2.415-1.907zm-20.93.601c-1.155.994-2.507 1.791-3.42 3.016 1.941-.37 2.646-2.854 5.027-3.12-1.503 1.017-2.947 2.08-4.23 3.317-.416-.012-.82-.024-1.11.104-.23-.3.29-.474.509-.705.832-.867 1.872-2.185 3.224-2.612zm-4.634.705c-.566.913-1.652 2.173-2.52 3.12.451-1.028 1.723-2.103 2.52-3.12zm20.121.3c.092.231-.335.798-.81.81.29-.255.602-.486.81-.81zm-26.963.104c-.057.185-.473.867-1.005.902.197-.44.636-.648 1.005-.902zm-5.131.704c.636-.195 1.503-.172 2.219-.3-.104.128-.104.37-.196.497-.393.104-.59-.22-.81 0 .162.174.544.127.706.3-.509.093-1.272-.404-1.919-.496zm-16.203 1.908c0-.197.277-.127.197-.405-.694.15-1.145.532-1.907.601.046-.358.543-.266.6-.6-.727-.22-1.224.658-2.01.704-.463-.173.531-.497.6-.809-.716-.208-1.201.682-1.918.81.174-.336.566-.44.705-.81-.936.035-.924 1.017-2.01.902.462-.786 1.19-1.295 1.814-1.907-1.18 0-1.56 1.664-2.82 1.907-.29.289.3.127.196.497-.22.254-.45.173-.705 0 .023.624.705.578.705 1.213-.924-.185-.97-1.248-1.814-1.514 0 .624.867.844.705 1.306-.093.046-.185.093-.197.197-.693-.255-.913-.971-1.514-1.306.532-1.006 1.353-1.907 2.115-2.913.694-.913 1.33-2.253 2.208-2.82 1.028-.658 2.392-.52 3.617-1.201.07 1.04-.82 2.53-.404 3.929 2.114.878 2.31-3.155 3.016-4.634.867-.035 1.352-.451 2.311-.405-.127 1.572.116 2.774.902 3.42.924.243 1.005-.103 1.814 0 .162-.207.07-.67.197-.9 1.502-.347 1.64-2.058 2.219-3.317 1.051-.185 2.253-.22 3.224-.497.173-.035.185.08.196.196-1.953 2.208-3.582 4.738-5.327 7.142-2.242.393-4.392.89-6.715 1.214zm-7.246.508c.82-.728 1.468-1.618 2.207-2.415-.404-.023-.705.566-.901.404.08-.011.3-.335.104-.3-.347.82-1.087 1.236-1.41 2.311zm-3.016-2.114c-2.762 3.444-5.71 7.57-8.044 11.776-2.704.485-5.385.994-7.95 1.606a46.15 46.15 0 003.12-5.732c.577-.254 1.028-.647 1.71-.809-.058.266.3.624 0 .81-.347.173-.347.034-.509-.197-1.733 1.098-1.953 3.132-2.715 5.235 1.433-.74 1.594-3.64 3.72-4.022.024.474.313.694.405 1.11.729-.197-.15-1.63.497-1.71.416.589.474 1.536.705 2.31.948-.623-.59-2.484.405-2.82.59.486.22 1.93 1.005 2.22.312-1.977-.578-3.167-.705-5.132.174-.404.636-.508 1.006-.705-.023 1.7.208 3.144.705 4.323.578-1.364-.393-2.878-.3-4.427.242-.092.438-.23.808-.196.266.982.231 2.254.705 3.016.543-.936-.139-2.311-.196-3.317.254-.08.393-.277.705-.3.046.832.358 1.895.3 2.52 1.063-.301.093-1.907.197-2.82.22-.185.74-.07 1.11-.104.022.346-.082.82.103 1.005.37-.3.243-1.41-.404-1.306 1.11-.89 2.496-1.48 3.617-2.335zm28.985 2.82c-.729-.624-2.046-.983-3.225-1.41-1.179-.428-2.461-.902-3.617-1.202 1.884-.3 3.779 1.121 5.732 1.41.185.196-.058.185 0 .508.393.162.208-.265.405-.3.774.37 1.571.358 2.611.809-3.917.855-6.656-1.606-10.066-2.219 1.26-.092 2.578.728 3.93 1.214 1.364.462 2.82.82 4.23 1.19zm91.253-2.323c1.318.092 2.878.809 4.426 1.005-.97-.035-3.316-.428-4.426-1.005zm-10.159.3c.948-.139 2.959.393 4.427.405-1.376.173-2.994-.29-4.427-.405zm-27.17 3.629c.301-.682 1.075-1.063 1.711-1.606.89-.775 1.41-1.676 3.12-1.607-1.363 1.18-3.005 2.104-4.126 3.525 1.815-.774 3.155-2.878 5.432-3.525-1.895 1.121-3.455 2.589-5.131 3.918-.266-.3-.659-.474-1.006-.705zm-15.694 1.907c2.623-.902 3.374-4.195 6.841-3.93-1.814 1.306-3.663 2.578-5.027 4.323.948-.382 1.907-1.457 2.924-2.312.936-.786 1.988-2.15 3.224-1.41-1.121.856-2.346 1.618-3.224 2.716 1.375-.266 2.427-1.733 3.721-2.415.694.277 1.283.67 1.907 1.005-1.629.613-3.64.855-5.235 1.514 1.075.081 2.022-.196 3.016-.404.948-.197 2.081-.728 3.017-.601.589.07 1.548.89 2.311 1.306 5.386 2.958 11.222 5.94 17.405 7.847-4.23 2.843-8.171 5.986-12.378 8.852-9.996-2.889-18.387-7.373-26.165-12.481 1.71-1.572 3.514-3.248 5.328-4.935.994-.913 1.607-1.826 3.317-1.907-2.311 1.71-4.6 3.444-6.437 5.64 1.56-.531 2.646-2.022 3.918-3.12 1.271-1.098 2.565-2.323 4.229-2.913-1.617 1.537-3.42 2.89-5.027 4.427 2.705-.752 3.964-3.814 6.738-4.831-1.514 1.156-2.959 2.392-4.403 3.629zm5.431 1.618c-.277.404-.624 1.248-.404 1.814.809-.532 1.225-1.456 1.71-2.311-.751 0-.785.763-1.306.497zm7.952 1.306c.254.138.312-.393.404-.104-.15.185-.104.566-.3.705-.231-.035-.185-.347-.497-.3.023 1.675 2.461 2.345 3.929 1.605-.069-.196-.566.024-.601-.196.22-.312.277-.797.601-1.005.058.242-.127.728.104.809.451-1.248.185-3.19-1.514-2.913.035-.138.139-.196.104-.404-.82.52-1.629 1.052-2.23 1.803zm-5.432-.509c-1.364.705-1.919 2.242-2.912 3.317-.104-1.618 1.883-2.543 2.01-3.93-.878.636-1.363 1.653-2.114 2.416.011-.243.011-.485-.104-.6-.601.23-.625 1.224-.601 1.71.069 1.34 1.005 2.623 1.906 3.016.59-.012 1.179-.046 1.514.196.694-.809 1.364-1.652 1.815-2.716-1.202.313-1.087 1.93-2.416 2.115.763-1.155 1.595-2.23 2.416-3.317.127.636.104 1.445.104 2.208-.405.693-1.803 1.387-1.514 2.115.497-.3.982-1.156 1.41-1.214-.023.59-.081 1.133-.301 1.514 1.26-.89 1.179-4.565.301-5.836.139-.07.185-.22.196-.404-.381.15-.866.196-1.306.3.058-.45.532-.474.497-1.005-.901.3-1.363 1.294-1.907 2.01-.554.74-1.421 1.353-1.514 2.22 1.33-.648 1.826-2.139 2.82-3.121-.046.277.544-.08.497.197-.242.45-.774 1.12-1.41 1.906-.774.971-1.86 2.52-2.219.81 1.006-1.237 2.034-2.45 2.832-3.907zm4.935 7.65c.219 1.723 1.699 2.185 2.115 3.722.404.139.312-.22.601-.196.104.127.104.37.196.508.659-.45.682.486 1.306 0 .254.116.231.509.508.601.208-.092.174-.428.497-.404-.069.37.07.531.208.705.59.057.22-.856.809-.81-.08.243-.173.578.197.602 1.017-1.364.277-4.577.508-6.738-.716.925-.427 3.051-.508 4.53-.023.474.058 1.248-.405 1.41-.462-1.548.047-4.068-.404-5.64-.647 1.33.046 4-.509 5.432-.069-1.48.185-3.502.104-5.328-.52.486-.531 1.607-.601 2.612-.069.89.151 2.196-.404 2.52-.243-1.422.439-3.849-.104-5.236-.613 1.306-.208 3.618-.705 5.028.15-1.653.231-3.386.3-5.132-.993.913-.496 3.329-1.005 4.727.081-1.537.3-2.912.3-4.53-.728.416-.462 1.826-.808 2.612-.058-.752.115-1.734-.105-2.312.555-.554 1.642-.566 2.219-1.11-2.357-.103-3.051 1.434-4.31 2.428zm7.639 3.017c-.046.578-.37 1.179-.104 1.514.947-1.04.67-4.345.404-5.94-.346 1.167-.185 3.04-.3 4.426zm1.41.104c.381-.89.67-2.947.3-3.93-.208 1.076-.659 2.96-.3 3.93zm1.306-.508c.196-.682.682-2.034.196-2.716-.139.716-.543 2.161-.196 2.716zM37.212 17.277c.035.232-.335.936-.705 1.11.093-.509.486-.717.705-1.11zm19.219.301c1.202.046 2.566.786 3.93 1.006-1.133-.116-2.786-.578-3.93-1.006zm26.454.601c1.017-.532 1.803.035 2.612.508.462.266 1.063.486.902.705-.994-.577-2.427-.716-3.514-1.213zm10.263 1.41c-.382.381-1.387 1.468-2.115 1.514.508-.705 1.26-1.167 2.115-1.514z" fill="#B3B8C6"/><path fill-rule="evenodd" clip-rule="evenodd" d="M26.846 20.802c-.081.555-.798.474-1.202.705.057-.185.716-.612 1.202-.705zm59.46.301c-1.097 2.438-2.195 5.281-3.617 7.547-.138.22-.185.716-.508.6 1.144-2.473 1.976-5.27 3.016-7.846.37-.116.693-.255 1.11-.301zm1.618.092c-.682 2.312-1.757 5.085-2.912 7.247.682-1.515 1.306-3.64 2.01-5.64.185-.555.313-1.352.902-1.607zm-10.471 1.919c-.913 2.334-2.126 5.258-3.317 7.65-.104-1.086.601-2.3 1.006-3.524.416-1.237.786-2.59 1.11-3.826.358-.138.9-.104 1.201-.3zm44.079.092c.728.497-.139 1.283-.301 1.814-.161.035-.173-.092-.3-.104 0 .301.011.613-.301.601.301-.762.624-1.502.902-2.31zm-23.149.209c-.104.358-.809 1.005-1.41 1.201.243-.624 1.029-.716 1.41-1.201zm-65.504.3c.011.797-.913 1.49-1.306 2.219.208-.578.716-1.7 1.306-2.22zm23.345.405c.566.034 1.156-.428 1.514 0-.925.889-2.208 1.409-3.317 2.114.092-.289 1.12-1.352 1.814-1.71-.011-.14-.011-.278-.011-.405zm62.892.797c.058-1.087.555-.59 0 0zm-61.182-.497c.485.08.728.415 1.202.496-.266.636-1.133.682-1.514 1.202-.139-.404.612-.797.705-1.306-.902.509-1.398 1.422-2.22 2.011.209-.37 1.711-1.606 1.827-2.404zm4.23.497c.589-.243 1.201.404 1.71.705 1.606.924 3.617 1.93 5.027 3.12.647.208 1.572.624 1.607 1.11.439-.035.728.08.809.404-2.936-1.49-5.929-3.802-9.153-5.34zm-4.831-.093c-1.756 1.907-3.883 4.3-6.645 5.536 1.456-2.612 4.241-3.872 6.645-5.536z" fill="#B3B8C6"/><path fill-rule="evenodd" clip-rule="evenodd" d="M54.813 24.916c-1.872 2.751-5.813 4.323-8.552 6.542 1.549-.67 3.329-1.965 5.028-2.82-1.029 1.352-1.965 2.797-3.525 3.617.554-.046.832-.381 1.202-.6.208.277-.497.935-.104 1.41.774-.44.658-1.33 1.202-1.908.728-.774 1.976-.913 2.715-1.71-.38 1.132-1.999 1.884-2.31 3.42.924-.115.9-1.178 1.813-1.305-.254.555-.785.832-.9 1.514 1.282-.832 1.733-2.497 3.42-2.913-.948.902-1.179 2.508-2.82 2.716.058.347.486.15.705.104-.139.578-.624.786-.705 1.41.936-.312 1.318-2.034 3.12-1.814-.242.624-.855.89-1.005 1.606.196.405.855-.127 1.306-.104-.058.358-.636.566-.405.902.416.15 1.04-.37 1.71-.3-.161.38-.542.53-.6 1.005.011.22.254-.128.497 0-.046.196-.393.08-.3.404.242.231.485-.104.808-.104.474.012-.208.231 0 .601.682 0 .775-.797 1.202-1.11.451-.323 1.098-.242 1.514-.704-.185.45-.74 1.849-1.606 1.606 1.028 1.213 3.594.901 5.64 1.11.08.288-.14.265-.104.508.462.127.323-.358.6-.405 1.491.567 3.606.601 5.236.509.659-.416 1.248-.89 2.01-1.202-.219.45-.612.728-.808 1.202 1.202-.786 2.15-2.681 3.825-3.317 6.588 4.553 12.308 9.962 20.12 13.279-4.715 1.398-11.082 1.641-16.607 1.907-.265.035-.335-.139-.3-.405-.37.162-1.502.682-1.606-.104-2.624.624-5.964-.416-9.061-.3-1.572-1.34-3.144-2.693-4.727-4.022-.07-.37.173-.427.104-.809-.485-.15-.208.462-.6.405-.428-.278-.752-.66-.602-1.514-.37-.07-.254.346-.404.497-3.976-3.271-7.547-7.027-12.158-9.743-1.503-.878-3.063-1.641-4.53-2.716 3.813-1.826 7.153-4.114 10.563-6.345zM71.12 38.704c-1.883 1.236-3.143 3.086-4.727 4.634.209-.797.971-1.48 1.607-2.115.659-.658 1.468-1.236 1.907-2.01-.254-.012-.393-.15-.405-.405-2.45-.104-3.247 1.444-4.426 2.612-.312 2.196 1.433 2.311 2.311 3.317.243.046.22-.185.509-.104.104.138.092.37.196.508.336 0 .382-.289.81-.196.115.127.288.185.196.508.763-.323 1.595.023 2.115.497 1.56-1.329 2.612-3.155 4.23-4.426.069.335.312.497.404.809-.635.381-1.236.97-1.814 1.514-.567.531-1.445.97-1.514 1.71 1.41-.74 2.23-2.069 3.42-3.016.105.289.22.578.197 1.005-.844 1.098-2.15 1.745-2.912 2.913 1.548-.798 2.646-2.046 3.721-3.317-.381-.174-.462.462-.601.196-.011-1.895-2.242-3.756-3.825-3.825-.67-.035-1.144.15-.601.3-.856.555-1.595 1.341-2.312 2.115-.681.74-1.34 1.769-2.311 1.907 1.26-1.733 2.9-3.062 4.23-4.727-.682.162-.994.682-1.514 1.006.254-.532 1.179-.878 1.11-1.41zm-29.285-8.552c2.993-1.676 5.72-3.606 9.361-4.623-2.462 1.699-5.686 3.502-8.656 5.027-.162-.208-.486-.254-.705-.404zM68 25.125c.266-.3.197-.948.497-1.202h.81c-.093.878-.498 1.444-.498 2.415.659-.45.613-1.606.902-2.415 1.051.08 1.826-.127 2.82-.104-.682 1.398-1.19 2.97-1.515 4.727-.242.196-.485-.255-.809-.301.486-1.167.752-2.531 1.214-3.721-1.086.566-.97 2.323-1.41 3.524-.208-.092-.404-.207-.6-.3.184-.982.415-1.93.704-2.82-.693.127-.809 1.664-1.005 2.612-1.618-.89-3.294-1.745-4.935-2.612.786-.855 2.554-.74 4.022-.901-.093.335-.127.728-.197 1.098z" fill="#B3B8C6"/><path fill-rule="evenodd" clip-rule="evenodd" d="M61.76 26.234c-.602 1.006-1.596 1.63-2.52 2.312.543-.613 1.248-2.427 2.52-2.312zm-3.93.093c-.867 1.144-1.93 2.958-3.618 3.617 1.133-1.271 2.092-2.727 3.618-3.617zm.613 5.443c-.07-.093-.185-.15-.3-.197 1.374-1.71 2.68-3.49 4.322-4.934.092.173.346.185.496.3-1.56 1.965-3.305 3.745-4.726 5.836-.544.023-.937.208-1.306.405.138-.44.624-1.387 1.514-1.41zm-36.324-5.039c.115.428-.543.924-.705 1.41-.058-.358.497-.97.705-1.41zm34.613 3.629c-.347.855-1.225 2.057-2.82 2.01 1.271-2.01 2.785-3.79 5.131-4.726-.866 1.11-1.722 2.242-2.912 3.016.058.15.45-.208.601-.3zm3.918 3.213c-.012-.255-.335-.197-.601-.197 1.283-2.034 3.028-3.617 4.426-5.536.324.15.566.382.901.497-1.802 1.792-3.328 3.849-4.934 5.836-.474.105-.96.185-1.306.405.057-.381.682-1.375 1.514-1.005zm-21.126-4.519c1.329-.497 2.196-.867 3.12-.901.636-.035-.566.37-.809.508-.681.347-1.352.994-2.311.393zm15.29-.809c-.497.878-1.526 2.092-2.416 2.912.393-.982 1.653-1.976 2.416-2.912zM25.24 29.447c.046.346-.544.057-.601.3-.232-.127.288-.358.6-.3zm-14.297.301c-.531.843-1.202 2.427-2.611 2.727.658-1.121 1.456-2.103 2.611-2.727zm12.378 0c-4.276 1.132-8.84 1.964-12.978 3.224 4.022-1.375 8.24-2.554 12.978-3.224zm45.789 1.109c-.717.046-1.341.994-1.908 1.606-.6.647-1.236 1.34-1.71 2.011.624-1.317 2-2.762 2.716-4.322.59.347 1.086.797 1.71 1.11-1.595 1.721-2.993 3.651-4.727 5.235.96-1.422 2.52-3.976 3.918-5.64zm2.507-.405c.405.035.728.15.705.601.3-.092.312-.092.601 0 .093.174.243.289.3.509 1.746.774 3.271 2.022 4.727 3.224 3.155 2.589 6.287 5.686 9.558 8.252.162.127 1.11.705.497.404-1.988-.982-3.964-3.086-5.732-4.634-3.329-2.913-6.934-5.594-10.656-8.356zm-39.847.208c-.105.231-.209.463-.405.601-.116-.058.092-.647.404-.6zm1.71 10.564c-.209-.15-.37-.359-.602-.509 2.07-3.294 4.866-5.86 6.646-9.465 6.495 4.345 14.203 7.466 19.82 12.678-.405 2.08-.382 4.577-1.907 5.536-.081-1.572.936-3.872 1.11-5.94-.625.647-.694 1.756-.902 2.715-.22.971-.555 1.907-.705 2.82-.3.127-.474.405-1.005.3.358-1.848.959-3.466 1.305-5.327-.947 1.433-.866 3.895-1.907 5.235-2.958-.173-6.922-.855-10.262-1.306-.173-.208.07-.196-.104-.404-.96-.116-2.023-.127-3.016-.197-2.774-1.849-5.513-3.744-8.056-5.836 1.353-2 3.502-3.213 5.132-4.935-.717 1.295-2.161 2.74-3.017 4.23 1.352-.3 2.289-1.872 3.525-2.612-.462.82-1.236 1.318-1.606 2.22 1.017-.382 1.525-1.434 2.115-2.22.624-.82 1.155-1.664 1.814-2.415.07-.59.358-1.595 1.006-1.907-.66-.404-.879.624-1.11 1.005-1.133 1.85-2.843 3.294-4.322 4.727.809-1.64 2.52-3.247 3.617-4.935-1.063.023-1.687 1.052-2.415 1.71-.751.683-1.537 1.353-2.22 2.012 1.122-1.838 3.19-3.583 4.23-5.837-1.074.509-1.525 1.884-2.415 2.82-1.04 1.098-2.484 1.896-3.317 3.12.717-.184 1.029-.774 1.607-1.109-.647.844-1.942 2.762-3.04 3.826zm4.23.196c1.94-1.445 4.275-3.04 5.234-5.131-1.56 1.907-3.663 3.247-5.235 5.131zm1.213 1.214c1.837-1.318 3.605-2.705 4.622-4.831.105 0 .081-.127-.104-.104-1.363 1.78-3.247 3.05-4.518 4.935zm10.667-.601c.346-.023.82.08 1.005-.104.243-.451-.011-.89-.196-1.202-1.202-.497-1.387.67-.81 1.306zm-2.023.6c.44-.104.52-.982.3-1.41-1.201-.75-1.351 1.503-.3 1.41zm7.35 5.536c.66-1.687 1.133-3.56 1.514-5.535-.023-.081-.08-.116-.196-.105-.428 1.838-1.179 3.86-1.318 5.64zm-5.535-3.825c-.197.208-.081.67 0 .901.289.128.624.128.901 0a1.112 1.112 0 000-.901c-.231-.08-.693-.197-.901 0zM8.03 31.47c-.16.635-.877 1.594-2.01 1.606.497-.705 1.294-1.121 2.01-1.607zm35.018.6c4.01 1.664 7.813 4.404 11.072 7.142-3.756-1.93-7.004-5.223-11.072-7.142zm-12.886 0c-.323.613-1.305.567-1.814 1.006-.092-.636 1.19-.763 1.814-1.006zm-11.776 1.306c-1.768 1.248-3.386 2.658-5.235 3.826 1.71-1.503 3.733-2.716 5.235-4.427.786-.393 1.664-.092 2.22.3-.429.209-.902.197-1.11.81-.278-.162.138-.45 0-.81-.89.486-.948 1.804-1.815 2.312 0-.45 1.017-1.248.705-2.01zm-1.202-.404c-.52.681-1.445 1.421-2.311 2.115-.844.67-1.757 1.444-2.612 1.71-.081-.381.52-.728.901-1.005 1.237-.913 2.74-2.011 4.022-2.82zm3.826.601c.312-.3.6.266.901.3-.358.786-.578 1.7-1.306 2.115-.15-.693.89-1.664.405-2.415zM3.605 36.092c1.734-.439 3.721-.635 5.432-1.11-.081.29-.879.729-1.202 1.11-1.549-.046-3.051-.092-4.23 0z" fill="#B3B8C6"/><path fill-rule="evenodd" clip-rule="evenodd" d="M64.984 34.983c.15.162-.278.59-.405.809.243.07.659-.543.902-.81-.081.625-.925 1.353-1.202 2.116-.347.08-.382-.15-.705-.104.37-.763.982-1.295 1.41-2.011zm-47.997.103c.22.058-.416.648.197.601-1.017.578-1.803 2.289-3.225 1.815.925-.89 2.15-1.48 3.028-2.416zm3.109.301c-.139 1.641-1.953 2.473-3.12 3.421-.093-.173-.358-.185-.509-.3 1.271-1.214 2.508-1.803 3.63-3.12zm.509 3.825c1.294-.785 1.768-2.38 2.52-3.72.323.057.462-.07.704-.105-.439 1.295-1.652 3.64-2.912 5.027a35.736 35.736 0 01-3.317-1.41c.497-.508 1.098-.912 1.606-1.41.22-.057.14.197.301.197.45-.52.786-1.156 1.41-1.514-.081.89-.982 1.838-1.202 2.912.474.07.855-.82 1.41-1.005.185-.035-.555.59-.52 1.029zm47.892 0c-.486 1.052-2.797 2.023-2.52 3.525-.705-.242-.023-.994.104-1.202.532-.866 1.653-1.837 2.416-2.323zm1.006 0c-.116.463-.647.486-.902.81-.104.08.497-.752.902-.81zm-40.542 1.006c.012 1.421 0 3.686 0 5.431-.878-.288-.462-2.091-.404-3.316.046-.902-.058-1.688.404-2.115zm45.071.197c.544.161.879.531 1.11 1.005-.982.45-1.583 1.445-2.311 2.207-.578.613-1.283 1.283-2.011 1.514 1.144-1.502 2.334-2.97 3.825-4.125-1.028-.301-1.757.82-2.415 1.514-.717.75-1.503 1.56-2.011 2.31.82-1.525 2.52-3.039 3.814-4.425zm-46.689.612c.22.15.531-.474.704-.705-.15 1.04.07 2.762 0 4.53-1.514-1.63-3.293-3.016-5.64-3.825.89-1.56 1.734-3.166 2.717-4.623.242.231.196.37-.197.405.07.23.566.035.81.104-.556 1.48-1.538 2.554-2.012 4.126.994-.66 1.653-2.508 2.416-3.722.23.208.543.335.6.705-.612 1.064-1.386 1.965-1.814 3.225.751-.59 1.456-2.104 2.115-3.12.3.138.404.462.705.6-.404.844-1.352 1.664-1.005 2.924.508-.832.658-2.022 1.514-2.52.23.775-.451 1.457-.913 1.896zm8.864 5.825c-.023-.335-.162-.578-.104-1.006.728.208 1.017 1.052 1.71 1.006-.381.242-1.005-.127-1.606 0zm62.58 2.415c-.057-.23.775.255 1.202.197-.3.67-.809-.07-1.202-.197zm-33.907.613c-.012.288-.45 1.028-.901 1.201.277-.427.635-.762.901-1.202z" fill="#B3B8C6"/></svg>