<?xml version="1.0" standalone="no"?>
<!DOCTYPE svg PUBLIC "-//W3C//DTD SVG 20010904//EN"
 "http://www.w3.org/TR/2001/REC-SVG-20010904/DTD/svg10.dtd">
<svg version="1.0" xmlns="http://www.w3.org/2000/svg"
 width="768.000000pt" height="768.000000pt" viewBox="0 0 768.000000 768.000000"
 preserveAspectRatio="xMidYMid meet">
<metadata>
Created by potrace 1.14, written by Peter Selinger 2001-2017
</metadata>
<g transform="translate(0.000000,768.000000) scale(0.100000,-0.100000)"
fill="#000000" stroke="none">
<path d="M3320 7010 c-14 -3 -40 -6 -57 -5 -18 0 -33 -3 -33 -6 0 -3 -6 -6
-14 -6 -22 0 -76 -25 -76 -35 0 -5 -4 -7 -9 -4 -5 3 -22 -8 -40 -24 -17 -17
-35 -30 -40 -30 -5 0 -16 -15 -25 -32 -8 -18 -16 -29 -16 -23 0 5 -16 -8 -35
-28 -19 -20 -38 -37 -41 -37 -3 0 -18 -13 -32 -29 -65 -70 -100 -111 -95 -111
3 0 -2 -9 -12 -20 -17 -19 -17 -21 9 -60 14 -22 26 -44 26 -50 0 -5 4 -10 9
-10 7 0 19 -24 25 -51 2 -12 56 -62 56 -53 0 19 28 -34 50 -96 13 -36 30 -71
37 -78 7 -8 11 -18 8 -23 -4 -5 -2 -9 3 -9 5 0 15 -11 22 -25 7 -13 16 -22 21
-20 4 3 15 -2 23 -11 9 -8 16 -13 16 -9 0 3 10 -4 23 -15 12 -12 20 -24 19
-27 -2 -2 9 -19 25 -35 15 -17 22 -28 16 -24 -7 4 -13 3 -13 -2 0 -6 6 -12 14
-15 8 -3 22 -22 31 -41 10 -20 22 -36 27 -36 5 0 7 -4 4 -9 -3 -5 1 -12 9 -15
8 -3 18 -7 22 -8 4 -2 18 -13 32 -25 13 -13 28 -23 33 -23 5 0 7 -4 3 -9 -3
-5 4 -13 15 -16 23 -7 84 -69 78 -80 -6 -12 63 -35 103 -35 34 0 86 16 99 30
3 3 24 14 48 24 39 18 44 18 59 3 19 -19 11 -47 -17 -54 -11 -3 -18 -9 -15
-13 5 -8 -24 -24 -37 -22 -4 1 -10 -7 -13 -18 -4 -11 -10 -20 -15 -20 -5 0
-21 -11 -36 -25 -15 -14 -32 -25 -37 -25 -6 0 -8 -3 -4 -6 3 -3 1 -11 -4 -18
-41 -48 -48 -60 -43 -67 3 -5 0 -9 -5 -9 -6 0 -11 -9 -11 -20 0 -11 -4 -20 -8
-20 -5 0 -15 -19 -22 -42 -7 -24 -17 -47 -21 -52 -4 -5 -5 -15 -2 -24 4 -8 2
-13 -3 -9 -5 3 -10 -2 -11 -11 -1 -25 -10 -58 -21 -79 -5 -10 -7 -24 -5 -30 3
-7 0 -13 -6 -13 -6 0 -10 -3 -9 -7 3 -15 -14 -63 -23 -63 -5 0 -9 -7 -9 -15 0
-14 -17 -36 -87 -111 -18 -19 -33 -37 -33 -39 0 -9 -54 -90 -63 -93 -4 -2 -5
-8 -1 -13 3 -5 1 -9 -5 -9 -5 0 -8 -9 -6 -20 2 -11 0 -20 -6 -20 -5 0 -9 -11
-9 -24 0 -14 -5 -28 -10 -31 -6 -4 -8 -11 -4 -16 3 -6 -2 -19 -11 -29 -16 -18
-19 -18 -43 -2 -15 9 -35 25 -44 34 -10 10 -22 18 -27 18 -5 0 -16 6 -23 13
-7 7 -38 28 -68 47 -30 19 -57 38 -58 42 -2 5 -8 6 -13 2 -5 -3 -9 -1 -9 4 0
5 -14 15 -31 23 -33 13 -104 80 -148 139 -34 46 -73 91 -143 164 -35 37 -54
64 -48 71 4 5 10 24 11 40 2 17 9 41 16 54 7 14 10 28 7 33 -3 4 2 11 10 14 9
3 14 10 11 14 -3 5 1 15 9 23 8 8 12 17 9 21 -4 3 -2 6 4 6 6 0 9 9 6 20 -4
14 0 20 11 21 17 2 33 5 41 9 7 3 22 7 36 9 5 0 8 5 4 10 -3 5 0 13 5 16 6 4
10 17 9 28 -3 46 2 56 44 76 63 31 109 73 98 90 -9 15 -81 26 -81 13 0 -4 -25
-7 -55 -7 -30 1 -55 -3 -55 -7 0 -5 -21 -7 -47 -5 -54 5 -90 -6 -109 -31 -8
-11 -13 -12 -14 -4 0 7 -15 12 -39 12 -22 0 -43 5 -46 10 -3 6 -17 10 -30 10
-13 0 -25 5 -27 12 -8 22 -59 15 -88 -13 -15 -15 -30 -25 -33 -23 -7 7 -87
-15 -87 -24 0 -7 -24 -12 -67 -15 -7 0 -13 -6 -13 -14 0 -7 -6 -12 -12 -11 -7
2 -12 -3 -10 -10 1 -8 -1 -11 -6 -8 -5 3 -32 -6 -60 -20 -41 -20 -50 -29 -47
-46 3 -12 0 -27 -6 -35 -7 -7 -7 -13 -2 -13 5 0 9 -15 8 -32 -1 -18 3 -41 7
-51 10 -19 -9 -46 -28 -40 -7 2 -18 -2 -26 -10 -17 -18 -52 -29 -98 -33 -32
-2 -109 -34 -85 -34 6 0 4 -4 -4 -9 -7 -5 -14 -25 -14 -45 -1 -21 -6 -35 -13
-33 -6 1 -38 -26 -72 -59 -33 -34 -63 -59 -66 -56 -3 2 -8 -3 -12 -12 -3 -9
-12 -16 -18 -16 -7 0 -28 -19 -47 -42 -19 -23 -44 -53 -56 -65 -13 -13 -23
-28 -23 -34 0 -6 -4 -7 -10 -4 -5 3 -10 1 -10 -4 0 -13 -82 -91 -95 -91 -3 0
-39 -33 -80 -74 -41 -41 -75 -71 -75 -68 0 4 -9 -6 -20 -23 -11 -16 -20 -27
-20 -22 0 4 -9 -2 -20 -13 -11 -11 -20 -24 -20 -29 0 -5 -6 -16 -14 -24 -16
-15 -50 -87 -48 -99 1 -5 -3 -8 -9 -8 -5 0 -9 -8 -8 -17 1 -10 -3 -31 -10 -47
-6 -16 -9 -31 -7 -34 3 -2 -1 -17 -10 -33 -8 -16 -12 -29 -8 -29 4 0 1 -6 -5
-13 -6 -8 -8 -17 -4 -20 3 -4 0 -7 -8 -7 -11 0 -11 -2 1 -10 12 -8 12 -10 1
-10 -8 0 -11 -3 -8 -6 3 -4 1 -16 -5 -28 -14 -26 -19 -58 -21 -158 -1 -43 -6
-78 -11 -78 -6 0 -5 -5 2 -12 16 -16 15 -31 -1 -22 -8 5 -8 2 2 -9 9 -12 10
-17 2 -17 -7 0 -10 -4 -7 -9 8 -12 11 -285 3 -297 -3 -6 1 -23 9 -38 7 -16 14
-38 14 -51 0 -12 7 -28 15 -35 8 -6 14 -15 13 -18 -3 -10 26 -52 35 -52 4 0
19 -10 32 -22 42 -39 53 -47 59 -41 3 4 6 2 6 -4 0 -5 18 -15 40 -22 22 -7 38
-16 36 -20 -3 -4 1 -8 8 -8 25 0 131 -48 149 -68 10 -11 21 -32 24 -46 6 -31
31 -44 93 -48 25 -2 47 -6 50 -9 7 -9 284 -146 289 -143 2 2 7 -1 10 -6 10
-15 88 -52 95 -46 3 4 6 2 6 -3 0 -6 16 -16 35 -24 19 -8 35 -17 35 -22 0 -4
8 -8 18 -8 9 0 28 -9 42 -20 14 -11 33 -20 43 -20 9 0 17 -4 17 -10 0 -5 7
-10 15 -10 8 0 15 -5 15 -11 0 -5 4 -8 8 -5 5 3 15 -11 23 -30 12 -32 54 -66
84 -69 14 -1 59 18 68 30 6 7 10 6 14 -2 2 -7 11 -13 19 -13 9 0 13 -4 10 -9
-4 -5 7 -15 24 -23 16 -7 30 -17 30 -21 0 -5 4 -6 8 -3 12 7 72 -25 72 -39 0
-7 13 -18 30 -25 16 -7 30 -17 30 -22 0 -5 4 -7 8 -4 5 3 16 -4 25 -15 9 -10
14 -19 11 -19 -3 0 1 -7 10 -15 24 -24 31 -83 14 -114 -17 -29 -15 -93 3 -127
8 -17 7 -28 -5 -53 -9 -17 -17 -34 -17 -38 0 -5 -7 -15 -14 -23 -16 -18 -14
-136 3 -187 7 -21 7 -33 1 -33 -6 0 -7 -5 -3 -12 4 -6 7 -28 6 -50 -2 -93 -1
-90 -22 -83 -19 6 -20 3 -18 -29 1 -27 7 -36 20 -36 10 0 19 -7 19 -15 3 -32
4 -36 14 -43 19 -14 22 -59 11 -152 -5 -36 -13 -71 -18 -77 -6 -7 -7 -13 -3
-13 4 0 -4 -11 -19 -25 -14 -13 -26 -28 -26 -33 0 -6 -7 -12 -15 -16 -8 -3
-15 -12 -15 -21 0 -8 -4 -15 -9 -15 -11 0 -24 -65 -27 -135 -1 -27 -3 -51 -4
-52 -3 -4 -3 -42 0 -45 6 -9 7 -38 1 -38 -5 0 -7 -12 -5 -27 1 -16 3 -28 4
-28 1 0 3 -10 4 -22 1 -12 0 -22 -3 -21 -3 0 -9 -1 -13 -2 -13 -4 -27 -7 -38
-9 -5 0 -10 -6 -10 -11 0 -6 -11 -28 -25 -50 -15 -24 -21 -41 -14 -45 5 -4 9
-14 8 -23 -1 -10 -1 -22 0 -28 2 -18 72 -94 87 -94 8 0 14 -4 14 -9 0 -5 15
-11 33 -14 17 -3 43 -7 57 -10 27 -7 149 -19 165 -17 6 0 34 2 62 3 29 1 53 5
53 9 0 3 11 5 25 3 14 -1 25 2 25 6 0 5 9 9 20 9 11 0 23 6 26 14 3 8 11 13
18 10 7 -3 18 7 26 21 7 14 17 25 22 25 4 0 8 7 8 15 0 8 4 15 8 15 5 0 8 21
7 47 -1 36 -8 54 -28 76 -15 16 -27 33 -27 38 0 5 -9 13 -21 19 -16 9 -18 14
-8 26 6 8 7 14 2 14 -5 0 -10 55 -11 122 -2 131 -3 146 -15 166 -5 6 -5 17 -2
22 3 6 -2 10 -12 10 -12 0 -14 3 -6 8 9 6 6 15 -10 34 -12 14 -29 35 -38 45
-26 32 -40 85 -43 161 0 17 -4 32 -7 32 -3 0 -5 10 -3 23 1 12 3 22 4 22 1 0
3 8 5 18 2 9 -1 17 -7 17 -6 0 -8 6 -5 13 20 49 20 50 6 42 -8 -5 -5 1 5 13
11 12 15 22 11 22 -4 0 0 9 9 19 10 11 15 24 12 30 -4 6 -2 20 5 32 8 15 8 19
0 15 -6 -4 -11 -3 -11 3 0 5 5 13 10 16 7 4 6 13 -1 27 -8 15 -8 19 0 14 6 -4
11 -3 11 3 0 5 -5 13 -10 16 -7 4 -7 11 -2 18 5 7 8 20 7 29 -2 9 3 19 11 22
15 6 16 53 2 73 -5 6 -5 14 1 17 11 7 5 55 -10 72 -5 6 -6 14 -2 17 3 4 2 7
-4 7 -6 0 -16 14 -22 31 -9 25 -8 38 3 61 26 52 -1 157 -41 158 -16 0 -44 58
-32 66 5 3 7 10 4 15 -4 5 -1 9 5 9 7 0 9 8 4 23 -13 39 -8 84 12 102 14 12
37 78 25 70 -10 -5 -26 24 -21 40 1 6 4 25 6 44 2 19 9 38 16 43 7 4 9 8 3 8
-5 0 -5 4 2 8 17 11 28 62 13 62 -6 0 -8 5 -5 10 3 5 2 10 -4 10 -6 0 -7 7 -4
17 5 12 3 14 -7 8 -10 -6 -12 -4 -7 8 3 9 2 19 -4 23 -6 3 -8 12 -5 20 3 8 1
14 -3 14 -5 0 -9 16 -9 35 0 20 -5 42 -12 50 -6 8 -9 19 -5 25 4 7 9 40 12 73
10 149 13 169 28 217 4 14 23 21 75 30 39 7 70 16 70 21 0 6 4 8 8 5 5 -3 19
4 30 15 20 18 24 26 21 45 0 3 9 13 20 22 12 9 32 26 46 37 36 29 33 67 -9
100 -39 31 -122 62 -160 60 -15 0 -26 3 -26 8 0 4 -6 7 -12 6 -7 -1 -27 -1
-44 0 -30 1 -31 3 -28 41 1 22 -2 42 -7 45 -5 4 -2 16 6 29 8 12 12 25 9 28
-11 12 -11 58 0 58 6 0 4 5 -4 10 -10 7 -11 10 -2 10 8 0 10 8 7 23 -4 12 -2
35 4 49 7 19 7 28 -2 32 -7 2 -5 5 5 5 10 1 19 13 23 31 4 17 11 30 17 30 6 0
8 7 4 15 -3 8 -1 15 3 15 13 0 7 30 -7 39 -7 4 -63 8 -126 10 l-113 2 3 -36
c1 -20 8 -42 14 -50 21 -26 47 -129 39 -157 -4 -16 -4 -28 -1 -28 4 0 7 -47 7
-104 1 -95 -1 -104 -17 -101 -10 2 -18 0 -18 -4 0 -4 -7 -8 -15 -8 -8 0 -15 5
-15 10 0 5 -7 4 -15 -3 -9 -7 -15 -8 -15 -2 0 6 -17 5 -46 -4 -26 -7 -50 -11
-54 -9 -5 3 -11 1 -14 -4 -3 -5 -17 -12 -31 -15 -36 -9 -65 -41 -72 -79 -3
-18 -2 -29 2 -25 4 4 16 -4 27 -17 11 -14 25 -25 33 -25 7 0 18 -14 24 -30 5
-17 8 -30 5 -30 -3 0 1 -6 8 -13 19 -19 82 -46 120 -53 77 -13 75 -11 84 -61
13 -80 19 -254 11 -316 -7 -50 -26 -106 -48 -143 -20 -32 -17 -67 8 -96 8 -9
12 -22 7 -29 -5 -8 -3 -10 5 -4 17 10 12 -62 -5 -89 -11 -15 -10 -24 2 -47 8
-16 11 -29 7 -29 -5 0 -1 -5 7 -10 15 -8 17 -24 12 -97 -1 -14 -9 -23 -19 -23
-9 0 -13 3 -10 7 4 3 2 12 -4 20 -6 7 -8 13 -5 13 4 0 -5 11 -20 25 -15 14
-23 25 -19 25 4 0 -4 9 -19 21 -14 11 -24 24 -21 29 6 10 -24 24 -47 21 -10
-1 -18 3 -18 8 0 6 -7 11 -15 11 -8 0 -17 11 -21 24 -6 25 -56 67 -89 76 -12
4 -21 16 -23 30 -6 53 -13 70 -40 95 -22 20 -36 25 -77 24 -63 -2 -58 -4 -199
64 -65 32 -123 59 -129 60 -11 2 -18 7 -51 35 -9 7 -18 12 -21 12 -14 -2 -75
25 -75 34 0 5 -3 6 -6 3 -4 -4 -19 2 -33 13 -15 10 -39 22 -54 25 -15 4 -24
11 -21 16 3 5 -2 9 -10 9 -29 0 -96 42 -138 86 -30 31 -44 40 -50 31 -6 -9 -8
-9 -8 0 0 19 -22 11 -48 -16 -20 -20 -27 -22 -48 -12 -14 6 -36 11 -49 11 -14
0 -25 5 -25 12 0 6 -3 9 -6 5 -3 -3 -30 3 -60 13 -30 11 -54 17 -54 14 0 -14
-124 92 -129 111 -2 6 -7 20 -12 33 -19 50 -31 113 -27 142 3 16 2 30 -1 30
-8 0 -5 308 4 404 4 44 13 93 20 110 7 17 11 39 10 49 -2 9 0 17 4 17 5 0 16
34 26 75 11 49 21 73 29 68 8 -4 8 -3 0 6 -8 9 -2 29 24 79 34 63 118 160 134
154 5 -1 7 4 6 10 -2 7 2 12 7 11 6 -1 20 12 30 28 11 16 27 31 36 34 9 3 22
16 29 30 7 13 17 22 21 19 11 -6 125 104 121 117 -1 5 5 9 13 9 8 0 15 3 15 8
0 4 14 23 30 42 16 19 30 38 30 43 0 4 7 7 15 7 8 0 15 5 15 12 0 6 3 9 6 6 3
-3 18 6 34 20 84 78 100 91 100 80 0 -10 2 -10 8 -1 10 15 62 28 71 17 15 -21
47 -32 65 -22 24 13 58 48 48 48 -4 1 5 8 21 16 15 8 27 19 27 24 0 5 9 7 20
5 11 -2 18 -1 16 4 -3 4 9 12 25 18 29 11 31 10 43 -18 7 -16 15 -27 18 -23 4
3 12 -3 19 -14 7 -12 19 -18 27 -14 10 3 13 1 8 -6 -5 -8 0 -12 13 -12 20 0
141 -109 141 -127 0 -5 9 -15 20 -23 11 -8 20 -20 20 -27 0 -6 6 -16 14 -20 7
-4 18 -18 25 -31 7 -12 17 -20 23 -16 7 4 8 3 4 -4 -4 -6 2 -20 14 -32 11 -11
20 -24 20 -30 0 -5 5 -10 10 -10 6 0 10 -7 10 -15 0 -8 5 -15 10 -15 6 0 10
-6 10 -12 0 -7 14 -28 30 -47 16 -18 28 -37 25 -41 -3 -4 2 -10 10 -14 8 -3
15 -10 15 -16 0 -6 11 -22 24 -35 14 -13 27 -34 31 -45 3 -11 11 -20 16 -20 6
0 7 -4 4 -10 -3 -5 1 -10 10 -10 9 0 14 -4 11 -9 -3 -5 1 -14 9 -21 8 -7 12
-16 9 -21 -3 -5 0 -9 6 -9 6 0 8 -4 5 -10 -3 -5 2 -10 11 -10 10 0 15 -3 11
-6 -6 -6 1 -14 67 -86 19 -21 31 -38 28 -38 -4 0 19 -25 51 -55 32 -30 60 -55
63 -55 10 0 33 -27 29 -34 -3 -3 -2 -4 2 -1 3 3 12 0 20 -6 7 -6 13 -9 13 -5
0 3 9 -2 19 -11 33 -30 50 -43 56 -43 3 0 40 -23 81 -51 74 -50 77 -51 127
-43 55 8 64 10 72 14 3 1 8 3 13 4 4 1 18 8 30 15 13 7 26 10 29 7 3 -3 14 6
25 19 11 14 24 25 30 25 13 0 88 79 88 92 0 5 5 6 10 3 6 -3 13 2 17 12 9 23
129 180 165 216 15 15 25 27 22 27 -3 0 13 18 35 40 22 22 38 40 36 40 -2 0 9
13 23 28 44 45 72 81 72 92 0 6 5 10 11 10 5 0 8 4 5 9 -3 5 1 14 8 21 8 6 13
20 11 31 -2 11 4 34 14 52 10 18 17 40 15 50 -1 9 2 17 7 17 6 0 7 5 4 10 -3
6 -1 10 5 10 6 0 9 4 5 9 -3 6 1 16 8 23 8 7 12 21 9 32 -4 14 -2 17 8 11 10
-6 12 -4 7 9 -4 9 -3 14 2 11 5 -3 16 3 23 13 7 10 23 24 36 31 18 10 23 9 28
-4 3 -8 10 -13 14 -10 4 3 12 -7 18 -23 5 -15 19 -38 31 -51 11 -13 21 -27 21
-31 0 -6 12 -22 50 -67 5 -7 10 -16 10 -20 0 -4 28 -33 62 -65 58 -55 62 -61
62 -106 1 -26 5 -53 9 -59 5 -7 6 -17 2 -22 -3 -5 0 -13 5 -16 13 -8 35 -57
39 -86 0 -5 5 -8 9 -5 5 3 15 -7 24 -22 13 -22 14 -37 6 -82 -5 -30 -11 -68
-13 -85 -2 -16 -6 -43 -10 -60 -10 -49 -25 -165 -31 -240 -1 -16 -3 -31 -4
-32 -3 -3 -4 -7 -15 -40 -4 -13 -10 -23 -14 -23 -9 0 -34 -60 -37 -89 -1 -14
-3 -28 -4 -31 -1 -3 -2 -8 -1 -12 2 -14 -31 -88 -40 -88 -4 0 -6 -9 -4 -20 2
-11 -1 -22 -6 -25 -5 -4 -7 -11 -4 -16 4 -5 -1 -12 -9 -15 -9 -3 -16 -10 -16
-15 0 -9 -47 -79 -97 -145 -12 -17 -23 -36 -23 -43 0 -7 -4 -10 -8 -7 -9 5
-57 -83 -54 -96 1 -5 -2 -8 -6 -8 -5 0 -20 -21 -33 -47 -13 -27 -26 -50 -29
-53 -3 -3 -6 -11 -7 -17 -2 -7 -4 -19 -5 -25 -2 -7 -5 -15 -8 -18 -15 -15 -39
-68 -33 -74 3 -3 1 -6 -5 -6 -7 0 -11 -3 -11 -7 3 -15 -23 -73 -33 -73 -5 0
-7 -4 -4 -8 3 -5 -1 -27 -9 -49 -9 -24 -12 -66 -10 -106 2 -36 -2 -85 -9 -109
-7 -23 -12 -51 -10 -60 1 -10 -1 -18 -5 -18 -5 0 -7 -20 -6 -45 0 -25 -1 -45
-4 -45 -4 0 -6 -10 -7 -22 -2 -46 -16 -132 -23 -147 -5 -9 -6 -22 -4 -28 3 -7
0 -13 -7 -13 -6 0 -8 -4 -5 -10 3 -5 1 -19 -6 -31 -9 -17 -8 -20 3 -13 10 6
11 5 1 -7 -6 -8 -14 -32 -17 -53 -9 -59 -18 -90 -28 -102 -5 -7 -8 -16 -7 -20
2 -16 -13 -54 -22 -54 -5 0 -8 -3 -7 -7 3 -12 -14 -57 -23 -63 -5 -3 -10 -21
-11 -40 -2 -19 -7 -38 -11 -41 -11 -8 -11 -120 0 -128 5 -3 9 -62 8 -131 -2
-100 -6 -137 -24 -186 -12 -34 -24 -72 -26 -85 -18 -90 -25 -162 -26 -289 -2
-196 -3 -210 -9 -210 -3 0 -5 -15 -5 -32 1 -18 -4 -36 -10 -40 -6 -5 -6 -8 2
-8 9 0 10 -7 3 -25 -5 -14 -6 -25 -2 -25 4 0 13 -13 20 -30 8 -17 21 -30 32
-30 10 0 30 -6 44 -14 36 -18 136 4 136 30 0 8 9 14 20 14 12 0 35 8 53 17 34
18 184 26 193 11 3 -5 10 -6 15 -3 5 4 9 1 9 -6 0 -8 4 -8 15 1 12 10 15 10
15 -1 0 -8 6 -5 14 7 14 18 15 18 21 1 5 -12 11 -14 19 -8 7 6 19 5 33 -2 21
-12 23 -15 23 -38 0 -5 4 -8 9 -4 5 3 12 1 16 -5 10 -16 33 13 47 59 7 23 17
41 22 41 4 0 6 6 3 14 -3 7 1 23 10 35 l15 22 24 -26 c13 -14 24 -29 24 -33 0
-4 9 -14 19 -22 11 -7 18 -17 15 -22 -3 -4 2 -8 11 -8 9 0 13 -5 10 -10 -3 -6
-1 -10 4 -10 6 0 11 -4 11 -10 0 -15 48 -59 62 -56 7 2 20 6 29 10 9 4 35 5
58 3 25 -2 49 1 61 10 11 8 20 12 20 9 0 -3 11 4 25 16 14 12 31 23 38 24 6 2
24 6 40 9 18 4 27 1 27 -7 0 -10 2 -10 9 0 11 17 22 17 32 0 6 -10 11 -10 20
-1 8 8 22 6 55 -12 24 -13 46 -19 50 -14 3 5 10 7 15 4 14 -9 11 -1 -17 62
-14 32 -26 66 -27 75 -1 9 -5 14 -9 12 -4 -3 -8 4 -8 15 0 11 -9 37 -20 56
-11 20 -18 40 -15 46 4 5 0 9 -7 9 -8 0 -15 12 -16 27 -1 15 -7 30 -13 34 -7
4 -9 11 -5 17 3 6 2 13 -4 17 -6 4 -8 11 -5 16 4 5 2 9 -3 9 -5 0 -9 6 -9 13
-1 16 -12 86 -17 112 -6 31 -46 129 -57 140 -5 5 -9 17 -9 28 0 10 -4 16 -9
13 -5 -3 -16 9 -25 27 -8 17 -27 43 -41 56 -14 13 -25 29 -25 37 0 8 -6 14
-14 14 -8 0 -18 9 -21 20 -3 11 -14 20 -22 20 -9 0 -14 3 -11 6 3 3 -3 15 -14
27 -48 54 -78 92 -78 99 0 5 -6 8 -14 8 -22 0 -46 43 -34 63 5 9 6 17 3 17 -3
0 16 20 42 45 119 113 194 182 227 210 20 17 61 53 91 81 30 29 55 50 55 49 0
-2 56 53 125 121 69 68 125 131 125 139 0 8 5 15 10 15 6 0 10 7 10 15 0 8 3
15 8 15 8 0 10 5 53 92 39 80 50 109 44 119 -4 5 -1 9 5 9 6 0 15 11 20 25 5
14 16 28 25 31 8 3 12 10 9 15 -3 5 0 9 5 9 6 0 11 5 11 12 0 14 127 138 141
138 6 0 7 5 3 12 -4 6 -3 8 3 5 6 -4 22 3 35 16 47 42 68 57 78 57 6 0 10 5
10 12 0 6 3 9 6 5 3 -3 26 18 51 46 25 29 57 65 71 81 15 17 26 33 25 37 -1 4
7 15 17 24 11 10 20 25 20 34 0 9 9 22 21 29 12 7 18 16 15 19 -3 4 1 15 11
25 9 10 13 18 9 18 -4 0 2 13 13 29 11 15 18 31 14 35 -3 3 1 14 10 24 10 10
14 22 10 25 -3 4 0 7 7 7 7 0 11 3 8 6 -4 3 -2 20 4 37 5 18 11 39 13 47 2 8
4 15 5 15 3 0 17 66 26 117 21 136 24 232 8 263 -7 14 -9 23 -4 20 10 -6 9 36
0 45 -3 3 -14 25 -25 50 -10 25 -25 52 -32 61 -7 8 -13 21 -13 27 0 7 -3 12
-7 12 -5 0 -9 15 -11 33 -7 73 -23 128 -34 121 -6 -4 -5 3 1 15 6 11 14 58 16
103 2 46 7 94 10 108 4 14 8 34 9 45 2 11 4 20 5 20 4 0 12 40 15 80 2 22 5
40 6 40 8 0 5 52 -4 57 -8 5 -7 8 2 8 15 0 15 157 0 166 -5 3 -4 12 3 20 9 11
9 17 -1 29 -10 12 -10 15 0 15 9 0 9 4 3 13 -6 6 -11 41 -13 77 -5 138 -11
185 -28 215 -4 5 -7 18 -7 28 -1 13 3 17 17 14 10 -3 21 -1 24 4 3 5 10 7 15
3 5 -3 16 -1 24 6 9 8 15 8 20 0 3 -6 10 -8 15 -5 5 3 18 2 27 -3 10 -6 36
-12 58 -16 65 -10 74 -12 81 -18 3 -4 12 -4 20 -1 8 3 14 0 14 -7 0 -9 3 -10
13 -1 8 6 17 7 23 1 8 -8 100 -20 184 -24 26 -1 73 7 160 29 11 3 28 7 38 9
27 6 122 66 122 77 0 5 6 9 13 9 8 0 22 9 32 20 10 11 24 20 32 20 8 0 12 4 9
9 -3 5 8 14 24 21 17 7 29 14 27 17 -2 2 11 20 29 40 34 37 44 63 23 63 -5 0
-7 5 -4 10 7 12 -84 110 -102 110 -7 0 -13 5 -13 11 0 5 -4 7 -10 4 -5 -3 -22
0 -37 8 -44 23 -124 47 -134 41 -5 -3 -9 -1 -9 4 0 6 -20 16 -44 23 -25 7 -43
16 -41 19 8 12 -285 17 -305 5 -9 -5 -11 -4 -6 3 4 7 2 12 -4 12 -16 0 -140
59 -172 82 -16 11 -28 17 -28 14 0 -3 -9 2 -20 12 -12 9 -24 16 -28 16 -4 -1
-13 7 -20 17 -7 11 -19 19 -25 19 -7 0 -20 8 -28 18 -9 9 -29 26 -44 37 -16
11 -36 28 -44 38 -9 9 -21 17 -27 17 -6 0 -25 14 -42 30 -18 17 -36 30 -41 30
-6 0 -15 8 -20 18 -6 9 -11 13 -11 9 0 -5 -6 -2 -14 5 -7 7 -24 20 -36 28 -12
8 -38 30 -56 48 -19 17 -38 32 -42 32 -5 0 -29 19 -55 43 -55 50 -129 103
-139 99 -5 -1 -8 3 -8 9 0 5 -4 8 -9 5 -5 -4 -11 -2 -13 2 -4 11 -127 54 -137
48 -4 -3 -13 -1 -21 4 -9 5 -19 5 -27 -2 -9 -7 -13 -7 -13 2 0 8 -7 10 -17 5
-10 -4 -29 -9 -42 -11 -13 -3 -32 -9 -41 -14 -10 -5 -20 -6 -24 -3 -3 3 -6 1
-6 -6 0 -7 -4 -10 -9 -6 -5 3 -12 1 -16 -5 -4 -6 -10 -8 -15 -5 -5 3 -11 1
-14 -3 -3 -5 -23 -8 -46 -8 -22 1 -40 -1 -40 -4 0 -3 -15 -6 -32 -6 -71 -3
-173 -15 -182 -23 -6 -5 -21 -7 -33 -6 -13 1 -21 -1 -18 -3 9 -10 -90 -49
-101 -41 -6 5 -14 5 -18 1 -11 -10 -66 -10 -66 0 0 5 -9 4 -19 -2 -14 -7 -22
-7 -26 0 -4 6 -10 8 -14 6 -17 -11 -151 115 -224 212 -21 28 -43 52 -48 52 -5
0 -8 3 -8 8 3 19 -2 33 -11 27 -5 -3 -10 -1 -10 5 0 7 -9 23 -20 37 -11 14
-17 29 -14 34 3 5 1 9 -3 9 -5 0 -35 25 -67 55 -32 30 -67 57 -77 60 -11 4
-19 10 -19 15 0 5 -16 14 -35 20 -19 6 -35 16 -35 22 0 6 -3 9 -6 5 -3 -3 -29
3 -57 12 -29 10 -62 17 -74 16 -13 -1 -23 3 -23 8 0 5 -11 7 -25 5 -14 -3 -25
-2 -25 1 0 10 -90 7 -90 -4 0 -6 -3 -6 -8 1 -4 6 -18 8 -32 4z"/>
</g>
</svg>
